<svg width="216" height="76" viewBox="0 0 216 76" fill="none" xmlns="http://www.w3.org/2000/svg">
<path fill-rule="evenodd" clip-rule="evenodd" d="M25.0861 1.64811V7.88097H9.238V15.0276H23.8723V21.0014H9.238V28.8299H25.2634V35.0355H2.56869V1.64811H25.0861ZM80.0635 27.998H67.8297L65.7157 35.0355H58.7463L69.139 1.64811H78.8497L89.2424 35.0355H82.1639L80.0635 27.998ZM78.2223 21.9697L73.9125 7.64912L69.6027 21.9697H78.2223ZM90.5789 22.6107V14.0184C90.5789 6.51711 95.8707 0.911621 104.068 0.911621C112.346 0.911621 117.27 6.33981 117.27 13.7865H110.546C110.45 9.59944 108.159 7.07629 104.081 7.07629C99.8941 7.07629 97.3574 9.87222 97.3574 14.3866V22.297C97.3574 26.8523 99.8805 29.6483 104.081 29.6073C108.173 29.6483 110.478 27.1251 110.546 22.8971H117.27C117.27 30.4393 112.346 35.8266 104.068 35.772C95.8707 35.8129 90.5789 30.2074 90.5789 22.6107ZM144.888 1.64811V7.88097H135.723V35.0355H128.985V7.88097H119.834V1.64811H144.888ZM25.318 50.9518V51.5929H18.5532V51.1837C18.5532 48.3741 16.562 46.5329 12.7977 46.5329C9.6608 46.5329 7.81958 48.1014 7.87413 50.1199C7.91505 52.7931 11.1338 53.4886 14.6389 54.3615L15.7436 54.6343C22.3175 56.2845 26.0954 59.1759 26.1363 64.6587C26.1772 71.2325 21.0764 75.1877 13.6978 75.1877C5.52828 75.1877 0.100098 70.7688 0.100098 62.9539V62.9129H6.86487V63.2266C6.86487 67.0045 9.55169 69.0503 13.7115 69.0503C17.0257 69.0503 19.3306 67.7137 19.3306 65.2861C19.3306 62.7493 17.3394 61.9719 12.7568 60.7989L11.652 60.5262C4.7918 58.8213 1.09572 56.2027 1.09572 50.6791C1.04116 44.8008 6.07383 40.4228 12.9614 40.4228C20.5308 40.4228 25.318 44.8417 25.318 50.9518ZM29.6005 62.081V53.4886C29.6005 45.9874 34.8923 40.3819 43.0891 40.3819C51.3678 40.3819 56.2914 45.7964 56.2914 53.2568H49.5675C49.4857 49.0697 47.1807 46.5329 43.1028 46.5329C38.9157 46.5329 36.3789 49.3425 36.3789 53.8569V61.7537C36.3789 66.309 38.9021 69.1185 43.1028 69.064C47.1944 69.1185 49.4993 66.5817 49.5675 62.3538H56.2914C56.2914 69.8959 51.3678 75.2832 43.0891 75.2286C34.8923 75.2832 29.6005 69.6777 29.6005 62.081ZM60.9421 41.1184H67.666V74.5194H60.9421V41.1184ZM96.1844 41.1456V47.324H80.3363V54.4979H94.9706V60.4716H80.3363V68.2866H96.3617V74.5331H73.667V41.1184L96.1844 41.1456ZM127.362 41.1184V74.5331H120.911L107.805 53.2704V74.5331H101.176V41.1184H107.614L120.734 62.3401V41.1456L127.362 41.1184ZM132.286 62.0946V53.4886C132.286 45.9874 137.578 40.3819 145.761 40.3819C154.053 40.3819 158.963 45.8101 158.963 53.2568H152.253C152.157 49.0833 149.853 46.5466 145.775 46.5466C141.601 46.5466 139.064 49.3561 139.064 53.8569V61.7673C139.064 66.309 141.588 69.1185 145.775 69.0776C149.88 69.1185 152.171 66.5954 152.253 62.3674H158.963C158.963 69.8959 154.053 75.2968 145.761 75.2423C137.578 75.2832 132.286 69.6777 132.286 62.0946ZM186.145 41.1184V47.324H170.297V54.4979H184.931V60.4716H170.297V68.2866H186.322V74.5331H163.628V41.1184H186.145ZM214.268 50.9655V51.6065H207.503V51.1973C207.503 48.3878 205.526 46.5466 201.761 46.5466C198.624 46.5466 196.783 48.1014 196.838 50.1335C196.879 52.7931 200.097 53.4886 203.602 54.3615L204.707 54.6343C211.281 56.2982 215.059 59.1896 215.1 64.6587C215.141 71.2325 210.04 75.1877 202.661 75.1877C194.465 75.1877 189.036 70.7688 189.036 62.9539V62.9129H195.801V63.2403C195.801 67.0045 198.515 69.0367 202.661 69.0367C205.976 69.0367 208.267 67.7001 208.267 65.2588C208.267 62.7356 206.276 61.9446 201.693 60.7853L200.588 60.5125C193.728 58.8077 190.046 56.1891 190.005 50.6791C189.964 44.7872 194.983 40.4228 201.87 40.4228C209.481 40.4364 214.268 44.8417 214.268 50.9655ZM38.2611 17.8917L37.9474 18.1645C33.242 14.2229 29.3823 8.78112 29.3823 1.66175H36.3789C36.3789 6.59894 38.302 10.2814 42.9391 14.0866L42.7209 14.2639L38.2611 17.8917ZM56.4823 35.0492H49.4857C49.5402 30.1256 47.5353 26.0477 42.9255 22.2425C43.0073 22.1743 43.0891 22.0924 43.171 22.0243L47.6581 18.3964C47.7536 18.3282 47.8354 18.2327 47.9309 18.1645C52.6089 22.1197 56.5369 27.9843 56.4823 35.0492Z" fill="#F5F5F5"/>
<path d="M49.4993 1.64062C49.4993 6.57591 47.5626 10.2569 42.9391 14.0743L42.7345 14.2379L38.2474 17.878L37.9337 18.1506C33.242 22.118 29.3687 27.9667 29.3687 35.0151H36.3789C36.338 30.0935 38.3292 26.0171 42.9391 22.2134C43.0209 22.1452 43.1028 22.0771 43.1846 22.0089L47.6717 18.3688C47.7626 18.2961 47.8536 18.2188 47.9445 18.137C52.6498 14.197 56.4959 8.77088 56.4959 1.64062H49.5402H49.4993Z" fill="#A9A9A9"/>
</svg>
