<svg width="251" height="55" viewBox="0 0 251 55" fill="none" xmlns="http://www.w3.org/2000/svg">
<g id="Group">
<path id="Vector" d="M0.399902 13.6299V26.3252H13.0952H25.7905V13.6299V0.934568H13.0952H0.399902V13.6299Z" fill="#F5F5F5"/>
<path id="Vector_2" d="M28.467 1.07129C28.3889 1.12988 28.3303 6.85254 28.3303 13.7666V26.3252H41.0256H53.7209V13.6299V0.934568H41.1624C34.2483 0.934568 28.5256 0.993162 28.467 1.07129Z" fill="#F5F5F5"/>
<path id="Vector_3" d="M232.236 9.52921C230.185 9.97842 228.017 11.5019 227.099 13.1816C226.299 14.6659 225.986 16.1894 225.986 18.5526V20.6425L224.092 20.7011L222.178 20.7597L222.119 22.9472L222.06 25.1542H224.033H225.986V34.4316V43.7089H228.721H231.455V34.4316V25.1542H235.459H239.463V31.0526C239.482 38.1034 239.619 39.4316 240.478 41.1698C241.201 42.5761 242.334 43.5136 243.818 43.9237C245.068 44.2558 247.783 44.1972 249.189 43.8066L250.4 43.455V41.2675V39.08L249.287 39.4511C247.49 40.0566 246.084 39.6855 245.381 38.3769C245.068 37.83 245.029 37.0292 244.971 31.4433L244.912 25.1542H247.646H250.4V22.9081V20.662H247.666H244.932V17.3222V13.9823L244.404 14.1191C244.092 14.1776 242.861 14.5487 241.67 14.9198L239.463 15.6034V18.1816V20.7597L235.439 20.7011L231.416 20.6425L231.474 18.3573C231.553 15.8573 231.807 15.1347 232.861 14.3534C233.584 13.8261 235.264 13.6894 236.416 14.08L237.314 14.3925V12.0683C237.314 10.0956 237.275 9.74405 236.982 9.64639C236.396 9.41202 233.135 9.35342 232.236 9.52921Z" fill="#F5F5F5"/>
<path id="Vector_4" d="M110.634 11.4619C109.619 12.0869 109.13 12.9462 109.13 14.1376C109.13 16.0517 110.576 17.2822 112.665 17.1064C114.443 16.9501 115.536 15.8173 115.536 14.1181C115.536 12.9462 115.146 12.2626 114.072 11.5204C113.232 10.954 111.513 10.915 110.634 11.4619Z" fill="#F5F5F5"/>
<path id="Vector_5" d="M69.7358 27.6909V43.7065H72.3726H75.0093L74.9702 31.4019C74.9312 24.6245 74.9702 19.0972 75.0288 19.0972C75.0874 19.0972 77.353 24.644 80.0874 31.4019L85.0483 43.7261L87.0015 43.6675L88.9546 43.6089L93.7788 31.4409C96.4351 24.7417 98.6616 19.2144 98.7202 19.1558C98.7788 19.0776 98.8374 24.5854 98.8374 31.3628V43.7065H101.572H104.306V27.6909V11.6753H100.537H96.7671L92.2944 22.6519C89.8335 28.7065 87.646 34.0386 87.4507 34.5073L87.0601 35.3862L85.3608 31.0894C84.4233 28.7456 82.314 23.4136 80.6733 19.2339L77.6851 11.6753H73.7007H69.7358V27.6909Z" fill="#F5F5F5"/>
<path id="Vector_6" d="M127.743 20.5619C123.778 21.4604 120.673 24.2924 119.345 28.2768C118.739 30.0346 118.583 33.8823 119.032 35.7768C119.735 38.726 121.864 41.5776 124.325 42.8666C127.372 44.4487 131.923 44.6049 135.302 43.2768L136.434 42.8276L136.532 40.3276C136.591 38.9604 136.61 37.8471 136.591 37.8471C136.571 37.8471 135.985 38.1596 135.282 38.5307C132.02 40.3471 128.368 40.0346 126.239 37.7885C124.638 36.1088 124.013 33.6869 124.423 30.8354C124.813 28.1205 126.376 26.0112 128.642 25.1713C130.77 24.3705 133.798 24.7416 135.751 26.0698C136.122 26.3041 136.474 26.519 136.532 26.519C136.591 26.519 136.61 25.3471 136.571 23.9018L136.513 21.2846L135.204 20.8549C133.505 20.2885 129.657 20.1323 127.743 20.5619Z" fill="#F5F5F5"/>
<path id="Vector_7" d="M150.985 20.4868C149.071 20.7603 147.567 21.8735 146.61 23.729L146.122 24.6665L146.102 22.6548V20.6431L143.426 20.7017L140.731 20.7603L140.672 32.2251L140.633 43.7095H143.348H146.083L146.141 36.6196L146.2 29.5493L146.747 28.3774C147.606 26.561 148.602 25.6431 150.086 25.3696C151.083 25.1938 152.704 25.4087 153.563 25.8579L154.11 26.1509V23.5142C154.11 21.6196 154.032 20.8384 153.875 20.7212C153.465 20.4868 151.922 20.3501 150.985 20.4868Z" fill="#F5F5F5"/>
<path id="Vector_8" d="M163.114 20.5662C158.876 21.5233 155.868 24.492 154.794 28.7694C154.345 30.5467 154.325 34.1209 154.774 35.9764C155.692 39.8631 158.622 42.8123 162.548 43.8475C164.227 44.2772 167.645 44.2772 169.442 43.8084C172.938 42.9295 175.77 40.4686 176.981 37.3045C177.684 35.3709 177.997 33.2811 177.86 31.1131C177.665 27.578 176.727 25.2928 174.735 23.2811C173.485 22.0506 172.587 21.4842 170.712 20.8202C169.267 20.2928 164.931 20.1561 163.114 20.5662ZM168.856 25.2342C170.165 25.8202 171.337 27.1873 171.806 28.6131C172.099 29.5116 172.177 30.3123 172.177 32.3827C172.157 34.6678 172.099 35.1756 171.708 36.1522C171.142 37.5975 170.321 38.5155 169.071 39.16C168.212 39.6092 167.821 39.6678 166.317 39.6678C164.384 39.6678 163.329 39.3358 162.157 38.3592C160.321 36.7772 159.481 33.0077 160.263 29.6873C160.809 27.4217 161.825 26.0545 163.583 25.2342C164.97 24.5702 167.47 24.5702 168.856 25.2342Z" fill="#F5F5F5"/>
<path id="Vector_9" d="M186.2 20.5617C183.895 21.2063 181.844 22.8274 181.044 24.6242C180.399 26.0891 180.399 28.7453 181.063 30.1321C181.864 31.7727 182.762 32.4758 186.219 34.136C187.958 34.9758 189.54 35.8547 189.735 36.0696C190.243 36.636 190.38 38.1008 189.969 38.7258C188.856 40.425 184.716 40.2492 181.61 38.3547L180.477 37.6711V40.3078V42.925L181.18 43.218C183.348 44.1164 187.528 44.4094 189.813 43.8235C192.333 43.1789 194.188 41.8117 195.126 39.8977C195.516 39.0774 195.594 38.6282 195.594 37.0657C195.594 35.5422 195.536 35.0735 195.184 34.4094C194.208 32.5539 192.958 31.6164 189.442 30.0344C186.864 28.9016 186.161 28.2961 186.005 27.1242C185.634 24.4485 189.677 23.6672 193.622 25.6594L194.559 26.1477L194.501 23.6477L194.442 21.1672L193.27 20.7961C191.669 20.2883 187.626 20.1516 186.2 20.5617Z" fill="#F5F5F5"/>
<path id="Vector_10" d="M206.551 20.6437C203.797 21.3273 201.395 22.9875 199.989 25.175C197.957 28.3585 197.508 33.5539 198.934 37.4015C200.692 42.1085 205.672 44.8039 211.317 44.1007C214.539 43.7101 216.297 42.9093 218.27 40.8976C220.653 38.4953 221.571 36.0148 221.571 31.9914C221.571 28.0656 220.653 25.4875 218.504 23.3195C217.059 21.8937 215.809 21.1906 213.758 20.6632C211.825 20.1554 208.504 20.1554 206.551 20.6437ZM212.821 25.2921C213.914 25.8781 214.93 27.05 215.457 28.3976C215.828 29.3742 215.907 29.921 215.907 32.089C215.926 36.0929 215.106 37.9679 212.821 39.1203C211.785 39.6281 211.453 39.6867 209.989 39.6867C207.879 39.6671 206.571 39.1593 205.477 37.9093C204.207 36.4445 203.836 35.2335 203.817 32.382C203.817 28.4757 204.696 26.5617 207.078 25.3507C208.25 24.7648 208.387 24.7453 210.164 24.8039C211.571 24.8625 212.215 24.9796 212.821 25.2921Z" fill="#F5F5F5"/>
<path id="Vector_11" d="M109.58 32.186V43.7095H112.314H115.048L115.009 32.2251L114.951 20.7603L112.275 20.7017L109.58 20.6431V32.186Z" fill="#F5F5F5"/>
<path id="Vector_12" d="M0.399902 41.7549V54.4502H13.0952H25.7905V41.7549V29.0596H13.0952H0.399902V41.7549Z" fill="#F5F5F5"/>
<path id="Vector_13" d="M28.3694 41.6963L28.428 54.3525L41.0842 54.4111L53.7209 54.4502V41.7549V29.0596H41.0256H28.3303L28.3694 41.6963Z" fill="#F5F5F5"/>
</g>
</svg>
