<svg width="251" height="28" viewBox="0 0 251 28" fill="none" xmlns="http://www.w3.org/2000/svg">
<path fill-rule="evenodd" clip-rule="evenodd" d="M83.8221 0.425049C82.4949 0.635768 80.8776 1.52463 80.0255 2.51194C79.0804 3.60697 78.7544 4.26268 78.3665 5.84804C78.085 6.99879 78.0562 7.76629 78.0601 14.0526C78.0637 20.1861 78.0986 21.1381 78.3619 22.2876C78.7368 23.9241 79.191 24.7871 80.2352 25.8479C81.164 26.7912 82.4592 27.4872 83.7372 27.7296C84.828 27.9364 90.9863 27.9411 92.2383 27.7361C94.2727 27.4029 96.1759 25.9844 97.1129 24.1028C97.8989 22.5245 98.0332 21.0623 98.0332 14.083C98.0332 7.16256 97.8992 5.66884 97.1444 4.17885C96.9044 3.7051 96.6403 3.23557 96.5574 3.13565C96.4746 3.03573 96.2558 2.75271 96.0713 2.50658C95.6438 1.93632 94.627 1.25152 93.4866 0.766067C92.6434 0.407177 92.3697 0.383295 88.6137 0.341053C86.425 0.316358 84.2688 0.354213 83.8221 0.425049ZM160.65 0.419198C159.745 0.550959 157.956 1.3719 157.297 1.95841C156.604 2.57465 155.79 3.84904 155.363 4.98485L154.965 6.04089V14.083C154.965 22.0263 154.97 22.1376 155.333 23.1469C156.118 25.3301 157.178 26.4724 159.27 27.3897C160.112 27.7588 160.385 27.7856 163.996 27.8536C168.244 27.9337 169.466 27.8116 170.816 27.1727C172.804 26.2307 174.048 24.4768 174.517 21.9529C174.765 20.6186 174.767 7.55784 174.519 6.2131C174.027 3.54312 172.575 1.69505 170.248 0.776952C169.315 0.409127 169.038 0.384594 165.361 0.34414C163.217 0.320582 161.097 0.354374 160.65 0.419198ZM0.583558 0.749983C0.401802 1.08986 0.334232 27.0047 0.514039 27.4732C0.598015 27.6921 0.979882 27.7302 3.0804 27.7302C4.78313 27.7302 5.60859 27.6698 5.74308 27.5353C5.88455 27.3938 5.93799 26.1922 5.93799 23.1487V18.957H9.46007C13.1436 18.957 14.4144 18.7812 15.3588 18.1413C15.5821 17.9899 15.8474 17.8375 15.9482 17.8024C16.1958 17.7163 17.3391 16.6454 17.5943 16.2606C17.8998 15.7998 18.4211 14.6234 18.7069 13.749C18.9143 13.1147 18.9475 12.3266 18.8918 9.34612C18.8278 5.92293 18.8011 5.66494 18.4259 4.82238C17.3497 2.40601 16.3478 1.52072 13.8393 0.769314C12.8035 0.459002 12.3074 0.435771 6.73876 0.435771C0.98573 0.435771 0.745174 0.448119 0.583558 0.749983ZM38.6662 0.801322C38.6176 1.00246 38.5978 7.12535 38.6225 14.4079L38.6672 27.649H41.266H43.8649L43.9081 23.303L43.9514 18.957H46.3604H48.7695L49.0601 19.6475C49.22 20.0272 49.5294 20.7401 49.7478 21.2316C49.9663 21.723 50.2065 22.2713 50.2816 22.4501C51.3793 25.0651 52.4633 27.4245 52.6309 27.5635C52.7674 27.6768 53.7257 27.7229 55.338 27.694L57.8337 27.649L57.8866 27.1861C57.9176 26.9142 57.694 26.1431 57.3446 25.3178C56.7897 24.0073 56.5921 23.5537 55.9061 22.0194C55.7603 21.6931 55.6409 21.3802 55.6409 21.3242C55.6409 21.2681 55.3961 20.6943 55.0969 20.0491C54.0195 17.7255 54.0329 17.914 54.8895 17.1159C55.3027 16.7311 55.6409 16.3298 55.6409 16.2243C55.6409 16.1189 55.702 16.0326 55.7767 16.0326C55.8514 16.0326 56.1228 15.5758 56.3798 15.0172L56.8471 14.0018L56.9028 10.0213C56.958 6.07192 56.9551 6.03228 56.5388 4.92864C55.9221 3.29373 54.8622 2.01073 53.5898 1.35826C53.3102 1.21496 52.5442 0.948842 51.8875 0.766716C50.7859 0.461441 50.2307 0.435771 44.724 0.435771H38.7546L38.6662 0.801322ZM115.965 0.856399C115.862 1.26435 115.92 1.53908 116.546 3.60388C116.708 4.14002 116.967 5.0539 117.122 5.63472C117.276 6.21554 117.529 7.12941 117.685 7.66556C118.325 9.87283 118.638 10.9656 118.894 11.8897C119.144 12.7919 119.36 13.5365 120.12 16.1138C120.278 16.65 120.534 17.5639 120.69 18.1447C120.961 19.1599 121.356 20.4954 121.844 22.0439C122.091 22.8306 122.508 24.3552 122.74 25.3241C122.819 25.6537 123.035 26.3301 123.221 26.8269L123.559 27.7302H126.533H129.506L129.675 27.2835C129.979 26.4788 130.32 25.393 130.606 24.3184C131.014 22.7852 131.494 21.1175 131.823 20.0943C131.981 19.6028 132.237 18.7255 132.392 18.1447C132.547 17.5639 132.806 16.65 132.968 16.1138C133.628 13.9291 133.906 12.976 134.176 11.9709C134.46 10.9164 134.824 9.66813 135.385 7.82802C135.549 7.29188 135.811 6.378 135.967 5.79718C136.123 5.21636 136.464 4.08689 136.723 3.28723C137.012 2.39675 137.176 1.57808 137.147 1.17516L137.098 0.517004L134.709 0.472002L132.32 0.427161L132.081 0.888567C131.95 1.14234 131.659 2.05524 131.435 2.91745C131.211 3.7795 130.907 4.90816 130.758 5.4253C130.339 6.88896 129.917 8.39373 129.654 9.37146C129.521 9.86292 129.26 10.8134 129.074 11.4835C128.887 12.1537 128.586 13.2504 128.405 13.9205C128.07 15.1571 127.91 15.7371 127.265 18.0634C126.688 20.1412 126.593 20.4444 126.533 20.3841C126.472 20.3232 125.734 17.6742 125.48 16.6012C125.395 16.2438 125.178 15.4396 124.998 14.8141C124.819 14.1886 124.493 13.0188 124.274 12.2146C123.734 10.2223 123.449 9.18219 123.052 7.74679C122.866 7.07661 122.574 6.01652 122.403 5.39102C122.233 4.76552 121.971 3.81509 121.822 3.27894C121.673 2.7428 121.482 2.01284 121.397 1.65671C121.116 0.47525 121.019 0.435771 118.397 0.435771H116.07L115.965 0.856399ZM196.216 0.638854C196.173 0.750632 196.157 6.87353 196.18 14.2455L196.222 27.649L198.637 27.694C200.279 27.7247 201.123 27.6794 201.276 27.5523C201.458 27.4011 201.501 26.4658 201.503 22.6333L201.505 17.901L202.367 16.8297L203.23 15.7584L203.533 16.261C203.868 16.8167 204.034 17.1031 204.582 18.0634C204.785 18.4209 205.382 19.4287 205.907 20.3031C206.432 21.1775 206.861 21.9581 206.861 22.038C206.861 22.1178 206.959 22.2811 207.079 22.401C207.199 22.5207 207.679 23.312 208.145 24.1591C209.271 26.2019 210.038 27.4224 210.301 27.5891C210.419 27.664 211.772 27.7263 213.307 27.7278C215.927 27.7301 216.104 27.7109 216.198 27.4152C216.296 27.106 215.929 26.2812 215.073 24.8871C214.662 24.2162 214.352 23.6751 213.819 22.6938C213.649 22.381 213.372 21.9058 213.202 21.6377C213.032 21.3697 212.697 20.7848 212.456 20.338C212.215 19.8912 211.881 19.3317 211.714 19.0945C211.546 18.8573 211.409 18.6001 211.409 18.5229C211.409 18.4457 211.232 18.1215 211.015 17.8024C210.601 17.1925 210.217 16.535 209.413 15.0578C209.146 14.5663 208.846 14.0546 208.747 13.9205C208.535 13.6341 208.295 13.2182 207.57 11.8787L207.036 10.8928L207.556 10.254C207.842 9.90257 208.15 9.52028 208.24 9.40428C208.33 9.28828 208.52 9.06895 208.661 8.91688C208.899 8.6592 210.716 6.37362 212.948 3.52265C213.472 2.85247 214.035 2.17336 214.198 2.01349C214.388 1.82811 214.495 1.48823 214.495 1.07557V0.428296L211.612 0.472651L208.729 0.517004L207.223 2.54784C206.394 3.6648 205.627 4.68835 205.517 4.82238C204.94 5.52668 202.36 8.95457 202.151 9.29591C201.544 10.285 201.501 10.0309 201.501 5.45649C201.501 2.73955 201.437 0.944456 201.333 0.749983C201.178 0.460791 200.971 0.435771 198.729 0.435771C196.93 0.435771 196.273 0.488897 196.216 0.638854ZM234.248 0.692794C234.119 1.02861 234.119 27.1374 234.248 27.4732C234.336 27.7028 235.194 27.7302 242.27 27.7302C249.346 27.7302 250.205 27.7028 250.293 27.4732C250.483 26.9787 250.402 23.2562 250.197 23.0512C250.053 22.9076 248.62 22.8562 244.756 22.8562H239.509V19.7721V16.688L243.61 16.6446L247.712 16.6012V14.2455V11.8897L243.61 11.8463L239.509 11.8029V8.55636V5.30978H244.674C248.475 5.30978 249.891 5.25828 250.034 5.11482C250.239 4.90979 250.32 1.18734 250.131 0.692794C250.043 0.46339 249.191 0.435771 242.189 0.435771C235.187 0.435771 234.336 0.46339 234.248 0.692794ZM91.3123 5.37916C91.5905 5.5439 91.956 5.90653 92.1244 6.18483C92.4128 6.66086 92.4308 7.12763 92.4308 14.083C92.4308 21.4112 92.4277 21.4801 92.0746 22.0439C91.4713 23.0068 91.2142 23.0899 88.6355 23.1542C87.3521 23.1862 85.9754 23.1635 85.576 23.1035C84.7145 22.9743 83.9639 22.3345 83.7344 21.5337C83.5293 20.8186 83.5291 7.34842 83.7341 6.6334C83.9202 5.98402 84.5629 5.3491 85.169 5.21572C85.411 5.16243 85.6819 5.09013 85.7712 5.05487C85.8606 5.01962 87.0301 5.01084 88.3701 5.03521C90.393 5.07193 90.8924 5.13042 91.3123 5.37916ZM167.96 5.34065C169.319 6.06737 169.34 6.20416 169.34 14.154C169.34 20.9336 169.337 21.0072 168.975 21.7157C168.319 22.9994 168.066 23.0925 165.078 23.1521C161.901 23.2154 161.329 23.0645 160.719 22.0007L160.326 21.3128L160.289 14.4079C160.256 8.22331 160.281 7.41974 160.532 6.70391C161.047 5.23716 161.745 4.98404 165.117 5.04041C166.91 5.07047 167.589 5.14212 167.96 5.34065ZM12.2371 5.5582C13.3094 5.98743 13.4826 6.48296 13.5455 9.30193C13.6052 11.9766 13.4644 12.8374 12.8499 13.5524L12.4639 14.0018L9.20084 14.0546L5.93799 14.1074V9.70858V5.30978H8.77723C10.9461 5.30978 11.763 5.36843 12.2371 5.5582ZM50.4195 5.56291C51.4697 5.98337 51.6627 6.64039 51.6552 9.77292C51.645 14.0229 51.5795 14.083 46.9562 14.083H43.9461V9.69639V5.30978H46.8665C49.1321 5.30978 49.9288 5.36648 50.4195 5.56291Z" fill="#F5F5F5"/>
<path fill-rule="evenodd" clip-rule="evenodd" d="M83.792 0.442886C82.4951 0.670827 81.1551 1.3813 80.2086 2.34326C79.1886 3.38013 78.7811 4.1551 78.3669 5.84638C78.0849 6.99762 78.0563 7.76138 78.0602 14.051C78.0638 20.1844 78.0987 21.1365 78.362 22.2859C78.7369 23.9225 79.191 24.7855 80.2353 25.8462C81.164 26.7895 82.4592 27.4855 83.7372 27.7279C84.8281 27.9348 90.9864 27.9395 92.2384 27.7344C94.2728 27.4012 96.1759 25.9827 97.113 24.1012C97.899 22.5228 98.0333 21.0606 98.0333 14.0813C98.0333 7.1609 97.8993 5.66718 97.1445 4.17719C96.6626 3.22595 96.6458 3.2019 95.8867 2.36731C95.0888 1.49015 93.9849 0.856202 92.5933 0.475542C92.0155 0.317462 84.6611 0.290329 83.792 0.442886ZM161.381 0.319573C161.337 0.362789 160.971 0.430701 160.569 0.470668C159.595 0.567174 157.889 1.43263 157.042 2.25959C156.665 2.62758 156.088 3.4716 155.76 4.13511C154.931 5.81453 154.846 6.94596 154.928 15.2999C154.993 22.0047 155.01 22.3241 155.352 23.2325C156.153 25.3619 157.212 26.4859 159.27 27.3881C160.112 27.7572 160.385 27.784 163.996 27.8519C168.244 27.932 169.466 27.81 170.816 27.171C172.857 26.2042 174.092 24.4198 174.534 21.7985C174.766 20.4193 174.676 6.76627 174.427 5.63306C174.146 4.35461 173.537 3.31173 172.436 2.22125C171.553 1.34799 171.172 1.0973 170.233 0.77253C169.187 0.411366 168.792 0.374486 165.28 0.310474C163.18 0.272132 161.426 0.276194 161.381 0.319573ZM0.674275 0.685937C0.441841 0.918427 0.415527 2.27941 0.415527 14.0797C0.415527 21.3038 0.45987 27.3302 0.514121 27.4716C0.598096 27.6904 0.979964 27.7286 3.08048 27.7286C4.78321 27.7286 5.60867 27.6681 5.74316 27.5336C5.88463 27.3921 5.93807 26.1905 5.93807 23.147V18.9554H9.46015C13.1437 18.9554 14.4145 18.7796 15.3589 18.1396C15.5822 17.9882 15.8475 17.8358 15.9483 17.8007C16.1959 17.7146 17.3392 16.6438 17.5944 16.2589C17.8999 15.7981 18.4211 14.6217 18.707 13.7473C18.9144 13.113 18.9476 12.3249 18.8918 9.34446C18.8279 5.92127 18.8012 5.66328 18.426 4.82072C17.8973 3.63358 17.2973 2.73497 16.6339 2.13644C15.9789 1.54522 15.4744 1.29584 13.9782 0.823383C12.8968 0.481714 12.5507 0.463356 6.88714 0.445647C1.64039 0.429238 0.902323 0.457833 0.674275 0.685937ZM38.6684 0.79089C38.6187 0.996736 38.5979 7.12369 38.6226 14.4063L38.6673 27.6473H41.2661H43.8649L43.9082 23.3014L43.9515 18.9554H46.3605H48.7696L49.0602 19.6458C49.22 20.0255 49.5294 20.7384 49.7479 21.2299C49.9664 21.7214 50.2066 22.2697 50.2817 22.4484C51.3793 25.0635 52.4634 27.4228 52.631 27.5619C52.7674 27.6751 53.7258 27.7213 55.338 27.6924L57.8337 27.6473L57.8867 27.1845C57.9403 26.7154 56.7403 23.6375 55.8721 22.0172C55.7449 21.78 55.641 21.5014 55.641 21.3979C55.641 21.2944 55.3934 20.6843 55.0908 20.0419C54.0214 17.7718 54.0311 17.9138 54.8896 17.1143C55.3028 16.7294 55.641 16.3281 55.641 16.2227C55.641 16.1172 55.702 16.031 55.7767 16.031C55.8515 16.031 56.1229 15.5741 56.3798 15.0155L56.8471 14.0001L56.9029 10.0197C56.9579 6.07529 56.9547 6.02915 56.541 4.93266C55.7706 2.89045 54.4098 1.55627 52.4129 0.885609C51.3871 0.541017 51.0412 0.521521 45.0479 0.470343L38.759 0.416565L38.6684 0.79089ZM116.097 0.629072C115.863 0.862375 115.849 1.28983 116.051 1.96601C116.133 2.24042 116.344 2.94017 116.521 3.52099C116.697 4.10181 116.967 5.05224 117.122 5.63306C117.276 6.21388 117.529 7.12776 117.685 7.6639C118.325 9.87117 118.638 10.9639 118.894 11.888C119.144 12.7902 119.36 13.5348 120.12 16.1122C120.278 16.6483 120.534 17.5622 120.69 18.143C120.961 19.1583 121.356 20.4938 121.844 22.0422C122.091 22.8289 122.508 24.3535 122.74 25.3224C122.819 25.6521 123.035 26.3284 123.221 26.8253L123.559 27.7286H126.533H129.506L129.675 27.2818C129.979 26.4771 130.32 25.3913 130.606 24.3168C131.014 22.7836 131.494 21.1158 131.823 20.0926C131.981 19.6012 132.237 18.7238 132.392 18.143C132.547 17.5622 132.806 16.6483 132.968 16.1122C133.628 13.9275 133.906 12.9743 134.177 11.9693C134.46 10.9147 134.824 9.66647 135.385 7.82636C135.549 7.29022 135.811 6.37635 135.967 5.79553C136.123 5.21471 136.464 4.08523 136.723 3.28557C137.012 2.39509 137.176 1.57642 137.147 1.1735L137.098 0.515346L134.709 0.470343L132.32 0.425502L132.081 0.886908C131.95 1.14068 131.659 2.05358 131.435 2.9158C131.046 4.41488 130.871 5.05191 130.198 7.4202C130.033 8.00102 129.788 8.87834 129.655 9.3698C129.522 9.86126 129.262 10.8117 129.078 11.4819C128.894 12.1521 128.594 13.2487 128.41 13.9189C128.227 14.5891 127.976 15.5029 127.851 15.9497C127.727 16.3965 127.463 17.3469 127.265 18.0618C126.688 20.1396 126.593 20.4427 126.533 20.3825C126.474 20.3237 125.736 17.6821 125.499 16.6808C125.424 16.3681 125.198 15.5273 124.995 14.8124C124.479 12.9936 124.283 12.2843 123.782 10.4258C123.541 9.53227 123.202 8.2894 123.029 7.6639C122.856 7.0384 122.575 6.01486 122.403 5.38936C122.232 4.76386 121.979 3.84998 121.841 3.35852C121.702 2.86706 121.509 2.1176 121.412 1.69291C121.145 0.53208 120.912 0.434112 118.416 0.434112C116.98 0.434112 116.228 0.497311 116.097 0.629072ZM196.216 0.637196C196.173 0.748973 196.157 6.87187 196.18 14.2438L196.222 27.6473L198.637 27.6924C200.279 27.7231 201.123 27.6777 201.276 27.5507C201.458 27.3994 201.501 26.4641 201.503 22.6317L201.505 17.8993L202.367 16.828L203.23 15.7567L203.533 16.2594C203.868 16.815 204.034 17.1014 204.582 18.0618C204.785 18.4192 205.382 19.427 205.907 20.3014C206.432 21.1758 206.861 21.9564 206.861 22.0364C206.861 22.1162 206.959 22.2794 207.079 22.3993C207.199 22.5191 207.679 23.3103 208.145 24.1574C209.271 26.2003 210.038 27.4207 210.301 27.5874C210.419 27.6623 211.772 27.7247 213.307 27.7261C215.927 27.7284 216.104 27.7092 216.198 27.4136C216.296 27.1044 215.929 26.2795 215.073 24.8854C214.662 24.2146 214.352 23.6734 213.819 22.6921C213.649 22.3794 213.371 21.9041 213.2 21.6361C213.029 21.368 212.787 20.9659 212.663 20.7425C212.539 20.5191 212.267 20.0439 212.059 19.6865C211.851 19.329 211.572 18.8173 211.438 18.5492C211.305 18.2811 211.069 17.879 210.915 17.6556C210.616 17.2222 210.196 16.4951 209.413 15.0561C209.146 14.5647 208.846 14.0529 208.747 13.9189C208.535 13.6325 208.295 13.2165 207.57 11.877L207.036 10.8911L207.556 10.2523C207.842 9.90091 208.15 9.51862 208.24 9.40262C208.33 9.28662 208.52 9.06729 208.661 8.91522C208.899 8.65755 210.716 6.37196 212.948 3.52099C213.472 2.85081 214.039 2.16796 214.207 2.00354C214.421 1.79412 214.498 1.52622 214.464 1.10998L214.414 0.515346L211.653 0.485614C209.046 0.457345 208.871 0.474891 208.526 0.7982C208.325 0.9865 208.161 1.21314 208.161 1.30169C208.161 1.39039 208.048 1.57869 207.909 1.7202C207.771 1.86171 207.229 2.56243 206.704 3.27729C206.179 3.99214 205.52 4.86946 205.239 5.22689C204.387 6.31006 202.74 8.4673 202.394 8.9508C201.548 10.1355 201.589 10.2978 201.501 5.37798C201.456 2.88233 201.361 0.748973 201.288 0.637196C201.193 0.489676 200.492 0.434112 198.725 0.434112C196.929 0.434112 196.273 0.487239 196.216 0.637196ZM234.344 0.629072C234.062 0.91144 234.062 27.2513 234.344 27.5336C234.49 27.6798 236.495 27.7286 242.367 27.7286C249.355 27.7286 250.205 27.701 250.293 27.4716C250.483 26.977 250.402 23.2546 250.197 23.0495C250.053 22.9059 248.62 22.8546 244.756 22.8546H239.509V19.7705V16.6863L243.61 16.643L247.712 16.5996L247.757 14.3376C247.791 12.637 247.751 12.0429 247.595 11.9436C247.48 11.8711 245.614 11.8107 243.448 11.8092L239.509 11.8068V8.55747V5.30812H244.674C248.475 5.30812 249.891 5.25662 250.034 5.11316C250.239 4.90813 250.32 1.18568 250.131 0.691135C250.043 0.461732 249.2 0.434112 242.286 0.434112C236.477 0.434112 234.49 0.482852 234.344 0.629072ZM91.3124 5.3775C91.5906 5.54224 91.9561 5.90487 92.1245 6.18317C92.4128 6.6592 92.4308 7.12597 92.4308 14.0813V21.4736L92.0628 22.0656C91.4628 23.0307 90.9438 23.1797 88.1832 23.1785C86.8566 23.178 85.5106 23.1053 85.1921 23.0167C84.5218 22.8305 83.9312 22.218 83.7236 21.4939C83.527 20.8089 83.5366 7.32028 83.7341 6.63174C83.9203 5.98236 84.563 5.34744 85.169 5.21406C85.411 5.16077 85.682 5.08847 85.7713 5.05321C85.8606 5.01796 87.0301 5.00918 88.3701 5.03355C90.393 5.07027 90.8925 5.12876 91.3124 5.3775ZM167.96 5.33899C169.32 6.06603 169.34 6.19926 169.34 14.1824C169.34 20.9396 169.334 21.0715 168.982 21.7958C168.404 22.9865 167.823 23.1795 164.817 23.1795C161.533 23.1795 161.006 22.9733 160.504 21.4952C160.282 20.8434 160.245 19.7601 160.252 14.1163C160.258 8.31377 160.293 7.4033 160.536 6.70225C161.044 5.23615 161.743 4.98238 165.117 5.03875C166.91 5.06881 167.589 5.14046 167.96 5.33899ZM12.2372 5.55654C13.2995 5.98171 13.4822 6.49072 13.548 9.20733C13.6138 11.9239 13.4296 13.0409 12.8218 13.6126C12.4204 13.99 12.3255 14.0014 9.17395 14.0529L5.93807 14.1057V9.70692V5.30812H8.77731C10.9462 5.30812 11.7631 5.36678 12.2372 5.55654ZM50.4196 5.56125C51.4701 5.98171 51.6631 6.63987 51.6538 9.77207C51.6478 11.8323 51.5905 12.4968 51.379 12.9571C50.9046 13.9894 50.8839 13.9949 47.2514 14.0528L43.9462 14.1052V9.70676V5.30812H46.8666C49.1322 5.30812 49.9289 5.36483 50.4196 5.56125Z" fill="#F5F5F5"/>
<path fill-rule="evenodd" clip-rule="evenodd" d="M83.6598 0.496596C81.6279 0.92291 79.7551 2.34612 78.9682 4.0621C78.1099 5.93356 78.0557 6.52867 78.0602 14.0351C78.0638 20.1855 78.0987 21.1377 78.362 22.2875C78.5257 23.0023 78.8285 23.9071 79.0346 24.2982C79.8164 25.7805 81.7252 27.276 83.3349 27.6674C83.6029 27.7326 85.5038 27.8146 87.559 27.8497C91.9267 27.9243 93.0091 27.7701 94.5783 26.8502C96.3234 25.8272 97.3768 24.1744 97.7846 21.8194C98.1282 19.8365 98.1405 8.50801 97.8014 6.4398C97.3544 3.71312 95.9057 1.76563 93.6491 0.858086C92.5575 0.4191 92.4096 0.404802 88.3702 0.346314C85.7978 0.309109 84.3307 0.3559 83.6598 0.496596ZM161.53 0.340627C161.493 0.377669 161.122 0.436482 160.705 0.47125C159.586 0.564831 157.645 1.58301 156.838 2.49949C155.801 3.67868 155.221 5.05591 155.024 6.81218C154.921 7.72849 154.883 11.043 154.926 15.3014C154.993 22.0032 155.011 22.326 155.352 23.234C155.756 24.3094 156.263 25.1503 156.938 25.8684C157.347 26.3042 158.232 26.9656 158.458 27.0047C158.502 27.0124 158.831 27.1496 159.189 27.3097C159.546 27.4699 160.094 27.6481 160.407 27.7061C161.173 27.8479 168.437 27.8408 169.279 27.6972C171.215 27.3672 173.181 25.775 173.962 23.9049C174.618 22.3336 174.7 21.2472 174.7 14.0927C174.701 6.2749 174.656 5.81187 173.708 3.76641C173.508 3.3336 172.055 1.76953 171.44 1.32388C171.048 1.03972 169.795 0.625271 168.783 0.444933C167.877 0.283603 161.677 0.194406 161.53 0.340627ZM0.679472 0.682297C0.440216 0.921611 0.415527 2.17326 0.415527 14.0813C0.415527 21.3054 0.457271 27.325 0.508273 27.458C0.584127 27.6559 1.04477 27.7038 3.04166 27.7217C4.68949 27.7365 5.55637 27.6822 5.71019 27.5545C5.89503 27.4011 5.93807 26.5704 5.93807 23.1612V18.9569H9.3562C13.9167 18.9569 15.074 18.6645 16.8477 17.0637C17.4826 16.4905 17.6844 16.2023 18.1268 15.2364C18.9208 13.5034 18.963 13.1837 18.9029 9.34601L18.846 5.71585L18.1455 4.30937C17.7084 3.43221 17.1898 2.67008 16.7673 2.28422C16.3947 1.94402 16.0533 1.65645 16.0086 1.6454C15.9639 1.63435 15.5985 1.47384 15.1965 1.28862C13.5069 0.510731 13.1551 0.475151 6.88616 0.445907C1.59345 0.421212 0.914505 0.447207 0.679472 0.682297ZM38.6676 0.796184C38.6182 1.00008 38.5979 7.12525 38.6226 14.4078L38.6673 27.6489H41.2661H43.865L43.9082 23.3029L43.9515 18.9569H46.3605H48.7696L49.0602 19.6474C49.22 20.0271 49.5295 20.74 49.7479 21.2315C50.3213 22.5211 50.3431 22.5713 51.3214 24.8616C52.6783 28.0385 52.2698 27.7464 55.282 27.6936L57.8337 27.6489L57.8877 27.1758C57.9174 26.9155 57.8657 26.55 57.7732 26.3635C57.6804 26.1768 57.413 25.549 57.179 24.9682C56.6514 23.6594 56.1747 22.5835 55.8721 22.0188C55.7449 21.7816 55.641 21.5039 55.641 21.4019C55.641 21.2484 54.8888 19.5546 54.3216 18.4312C54.0857 17.9641 54.1483 17.8208 54.91 17.0801C55.312 16.6894 55.641 16.2938 55.641 16.201C55.641 16.1084 55.702 16.0325 55.7768 16.0325C55.8515 16.0325 56.1229 15.5757 56.3797 15.0171L56.8468 14.0017L56.9043 10.0373C56.9591 6.25979 56.9446 6.02649 56.5983 5.08207C55.8237 2.96983 54.4114 1.55556 52.4129 0.890579C51.3909 0.550536 51.0191 0.529739 45.0469 0.479049L38.7572 0.42576L38.6676 0.796184ZM116.097 0.630631C115.863 0.863934 115.849 1.29139 116.051 1.96757C116.133 2.24198 116.344 2.94173 116.521 3.52255C116.697 4.10337 116.967 5.0538 117.122 5.63462C117.276 6.21544 117.529 7.12932 117.685 7.66546C118.325 9.87274 118.638 10.9655 118.894 11.8896C119.144 12.7918 119.36 13.5364 120.12 16.1137C120.278 16.6499 120.534 17.5638 120.69 18.1446C120.961 19.1598 121.356 20.4953 121.844 22.0438C122.091 22.8305 122.508 24.3551 122.74 25.324C122.819 25.6537 123.034 26.3264 123.218 26.819L123.553 27.7147H126.533H129.513L129.674 27.2756C129.99 26.4164 130.321 25.3594 130.6 24.3183C130.986 22.8792 131.704 20.4331 132.384 18.2375C132.52 17.7971 132.632 17.3061 132.632 17.1464C132.632 16.9865 132.736 16.6158 132.864 16.3224C133.083 15.8169 133.532 14.3276 134.173 11.9708C134.464 10.9026 134.843 9.60613 135.386 7.82792C135.549 7.29178 135.811 6.3779 135.967 5.79708C136.123 5.21627 136.464 4.08679 136.723 3.28713C137.012 2.39665 137.176 1.57798 137.147 1.17506L137.098 0.516905L134.69 0.487986L132.281 0.459229L132.027 1.05662C131.787 1.62428 130.803 5.07037 130.534 6.28449C130.465 6.59724 130.293 7.21867 130.151 7.66546C130.01 8.11224 129.786 8.8799 129.653 9.37136C129.521 9.86282 129.262 10.8133 129.078 11.4834C128.894 12.1536 128.594 13.2503 128.41 13.9204C127.762 16.2908 127.626 16.7756 127.288 17.9124C127.1 18.5443 126.947 19.1792 126.947 19.3234C126.947 19.4677 126.869 19.7889 126.775 20.0375C126.555 20.6168 126.374 20.3598 126.129 19.1194C126.032 18.6279 125.851 17.8968 125.726 17.4947C125.506 16.7852 124.707 13.9063 124.249 12.1739C124.125 11.7049 123.908 10.9005 123.767 10.3868C123.626 9.87306 123.341 8.83116 123.134 8.07162C122.927 7.31209 122.636 6.25199 122.486 5.71585C122.337 5.17971 122.103 4.33894 121.967 3.84748C121.831 3.35602 121.598 2.48048 121.45 1.90194C121.242 1.09074 121.088 0.803008 120.774 0.645252C120.228 0.369546 116.37 0.357524 116.097 0.630631ZM196.344 0.543225C196.184 0.607886 196.141 3.46796 196.141 14.079C196.141 26.1973 196.166 27.5427 196.398 27.6315C196.897 27.8231 201.101 27.7405 201.306 27.5352C201.449 27.3925 201.502 26.0723 201.503 22.6206L201.505 17.9009L202.367 16.8296L203.23 15.7583L203.533 16.2609C203.937 16.9313 204.128 17.2621 204.665 18.2258C204.914 18.6726 205.192 19.1312 205.282 19.2451C205.543 19.5754 206.861 21.9244 206.861 22.0599C206.861 22.1276 206.959 22.281 207.079 22.4009C207.199 22.5206 207.679 23.3119 208.146 24.159C209.419 26.4702 210.071 27.4671 210.39 27.5935C210.549 27.6561 211.898 27.7124 213.388 27.7188C215.932 27.7295 216.104 27.7108 216.198 27.4151C216.296 27.1059 215.929 26.2811 215.073 24.887C214.662 24.2161 214.352 23.675 213.819 22.6937C213.649 22.3809 213.371 21.9057 213.2 21.6376C213.029 21.3696 212.787 20.9674 212.663 20.7441C212.539 20.5207 212.267 20.0454 212.059 19.688C211.851 19.3306 211.571 18.8188 211.437 18.5508C211.303 18.2827 211.004 17.7698 210.773 17.4109C210.542 17.0518 210.26 16.6132 210.147 16.4361C210.034 16.2588 209.833 15.8944 209.701 15.6263C209.568 15.3583 209.281 14.8465 209.062 14.4891C208.613 13.755 208.449 13.4662 207.622 11.9598L207.036 10.8927L207.556 10.2539C207.842 9.90247 208.133 9.54195 208.202 9.45259C208.271 9.36324 208.491 9.09955 208.691 8.86658C208.891 8.6336 209.164 8.27942 209.298 8.07975C209.432 7.87991 209.709 7.52216 209.914 7.2848C210.119 7.04743 210.447 6.64581 210.645 6.39236C210.842 6.13892 211.08 5.84648 211.174 5.7425C211.267 5.63852 211.92 4.82228 212.623 3.92871C213.326 3.03514 214.035 2.17326 214.199 2.01339C214.584 1.63598 214.598 0.672386 214.22 0.527465C214.069 0.469465 212.811 0.432095 211.425 0.444605C209.084 0.465564 208.878 0.492047 208.536 0.816981C208.332 1.00934 208.165 1.23371 208.163 1.31559C208.162 1.39748 208.048 1.58025 207.909 1.72176C207.771 1.86327 207.229 2.56399 206.704 3.27885C206.179 3.9937 205.52 4.87102 205.239 5.22845C204.958 5.58588 204.253 6.49976 203.673 7.25929C203.093 8.01882 202.518 8.76243 202.397 8.91174C202.275 9.06105 202.095 9.33513 201.995 9.52099C201.568 10.3187 201.501 9.75722 201.501 5.40245C201.501 1.56807 201.465 0.910725 201.246 0.690907C201.037 0.482461 200.584 0.437945 198.769 0.448505C197.547 0.455491 196.456 0.498221 196.344 0.543225ZM234.347 0.627869C234.062 0.912837 234.059 27.2502 234.344 27.5352C234.49 27.6814 236.495 27.7301 242.367 27.7301C249.355 27.7301 250.205 27.7025 250.293 27.4731C250.347 27.3318 250.392 26.3108 250.392 25.2043C250.392 23.3815 250.362 23.1767 250.078 23.0243C249.88 22.9185 247.86 22.8561 244.636 22.8561H239.509V19.772V16.6879L243.61 16.6445L247.712 16.6011L247.757 14.3391C247.791 12.6386 247.751 12.0444 247.595 11.9452C247.48 11.8727 245.615 11.8123 243.448 11.8108L239.509 11.8084V8.55903V5.30968H244.674C248.475 5.30968 249.891 5.25818 250.035 5.11472C250.238 4.91115 250.321 1.18887 250.133 0.698542C250.048 0.477262 249.121 0.446556 242.291 0.438757C236.411 0.432096 234.497 0.477587 234.347 0.627869ZM91.3124 5.37906C91.5906 5.5438 91.9561 5.90643 92.1245 6.18473C92.4099 6.65605 92.4341 7.16847 92.4792 13.6767C92.5122 18.4159 92.4697 20.895 92.3472 21.3848C92.1593 22.1366 91.6135 22.7736 90.9368 23.0308C90.4119 23.2305 85.925 23.2222 85.2028 23.0202C84.1904 22.737 83.7845 22.1182 83.5742 20.5364C83.3178 18.61 83.4325 7.2047 83.7148 6.54053C83.9789 5.91959 84.6184 5.33682 85.169 5.21562C85.411 5.16233 85.682 5.09003 85.7713 5.05477C85.8606 5.01952 87.0301 5.01074 88.3702 5.03511C90.393 5.07183 90.8925 5.13032 91.3124 5.37906ZM167.298 5.14023C168.122 5.33178 168.704 5.77011 169.048 6.46125C169.295 6.95677 169.326 7.75985 169.333 14.0217C169.343 23.4641 169.524 23.0628 165.203 23.1554C161.648 23.2314 161.018 23.0105 160.508 21.508C160.281 20.8419 160.245 19.8011 160.252 14.1178C160.258 8.31532 160.293 7.40486 160.536 6.70381C160.838 5.83185 161.358 5.34949 162.214 5.14754C162.979 4.96672 166.527 4.96168 167.298 5.14023ZM12.2372 5.5581C13.2995 5.98327 13.4822 6.49228 13.548 9.20889C13.6138 11.9253 13.4296 13.0425 12.8218 13.6142C12.4202 13.9918 12.3275 14.003 9.17396 14.0517L5.93807 14.1019V9.70572V5.30968H8.77731C10.9462 5.30968 11.7631 5.36834 12.2372 5.5581ZM50.4196 5.56281C51.4671 5.98213 51.6615 6.64143 51.6615 9.77363C51.6615 11.9081 51.6108 12.4826 51.3802 12.9638C50.8862 13.9945 50.8787 13.9965 47.2514 14.0543L43.9462 14.1068V9.70832V5.30968H46.8666C49.1322 5.30968 49.9289 5.36638 50.4196 5.56281Z" fill="#F5F5F5"/>
<path fill-rule="evenodd" clip-rule="evenodd" d="M83.6598 0.496596C81.6279 0.92291 79.7551 2.34612 78.9682 4.0621C78.1099 5.93356 78.0557 6.52867 78.0602 14.0351C78.0638 20.1855 78.0987 21.1377 78.362 22.2875C78.5257 23.0023 78.8285 23.9071 79.0346 24.2982C79.8164 25.7805 81.7252 27.276 83.3349 27.6674C83.6029 27.7326 85.5038 27.8146 87.559 27.8497C91.9267 27.9243 93.0091 27.7701 94.5783 26.8502C96.3234 25.8272 97.3768 24.1744 97.7846 21.8194C98.1327 19.81 98.1405 8.48803 97.7953 6.44695C97.3277 3.68193 95.9062 1.76579 93.6491 0.858086C92.5575 0.4191 92.4096 0.404802 88.3702 0.346314C85.7978 0.309109 84.3307 0.3559 83.6598 0.496596ZM161.53 0.340627C161.493 0.377669 161.122 0.436482 160.705 0.47125C159.586 0.564831 157.645 1.58301 156.838 2.49949C155.801 3.67868 155.221 5.05591 155.024 6.81218C154.921 7.72849 154.883 11.043 154.926 15.3014C154.993 22.0032 155.011 22.326 155.352 23.234C155.756 24.3094 156.263 25.1503 156.938 25.8684C157.347 26.3042 158.232 26.9656 158.458 27.0047C158.502 27.0124 158.831 27.1496 159.189 27.3097C159.546 27.4699 160.094 27.6481 160.407 27.7061C161.173 27.8479 168.437 27.8408 169.279 27.6972C171.215 27.3672 173.181 25.775 173.962 23.9049C174.618 22.3336 174.7 21.2472 174.7 14.0927C174.701 6.2749 174.656 5.81187 173.708 3.76641C173.508 3.3336 172.055 1.76953 171.44 1.32388C171.048 1.03972 169.795 0.625271 168.783 0.444933C167.877 0.283603 161.677 0.194406 161.53 0.340627ZM0.679472 0.682297C0.440216 0.921611 0.415527 2.17326 0.415527 14.0813C0.415527 21.3054 0.457271 27.325 0.508273 27.458C0.584127 27.6559 1.04477 27.7038 3.04166 27.7217C4.68949 27.7365 5.55637 27.6822 5.71019 27.5545C5.89503 27.4011 5.93807 26.5704 5.93807 23.1612V18.9569H9.3562C12.0065 18.9569 13.0191 18.896 13.8636 18.6856C14.8412 18.4419 15.8964 17.9126 16.4545 17.3857C16.5656 17.2806 16.8214 17.0582 17.023 16.8915C17.4638 16.5264 17.6943 16.1808 18.1268 15.2364C18.9208 13.5034 18.963 13.1837 18.9029 9.34601L18.846 5.71585L18.1455 4.30937C17.7084 3.43221 17.1898 2.67008 16.7673 2.28422C16.3947 1.94402 16.0533 1.65645 16.0086 1.6454C15.9639 1.63435 15.5985 1.47384 15.1965 1.28862C13.5069 0.510731 13.1551 0.475151 6.88616 0.445907C1.59345 0.421212 0.914505 0.447207 0.679472 0.682297ZM38.6676 0.796184C38.6182 1.00008 38.5979 7.12525 38.6226 14.4078L38.6673 27.6489H41.2661H43.865L43.9082 23.3029L43.9515 18.9569H46.3605H48.7696L49.0602 19.6474C49.22 20.0271 49.5295 20.74 49.7479 21.2315C50.3213 22.5211 50.3431 22.5713 51.3214 24.8616C52.6783 28.0385 52.2698 27.7464 55.282 27.6936L57.8337 27.6489L57.8877 27.1758C57.9174 26.9155 57.8657 26.55 57.7732 26.3635C57.6804 26.1768 57.413 25.549 57.179 24.9682C56.6514 23.6594 56.1747 22.5835 55.8721 22.0188C55.7449 21.7816 55.641 21.5039 55.641 21.4019C55.641 21.2484 54.8888 19.5546 54.3216 18.4312C54.0857 17.9641 54.1483 17.8208 54.91 17.0801C55.312 16.6894 55.641 16.2938 55.641 16.201C55.641 16.1084 55.702 16.0325 55.7768 16.0325C55.8515 16.0325 56.1229 15.5757 56.3797 15.0171L56.8468 14.0017L56.9043 10.0373C56.9591 6.25979 56.9446 6.02649 56.5983 5.08207C55.8237 2.96983 54.4114 1.55556 52.4129 0.890579C51.3909 0.550536 51.0191 0.529739 45.0469 0.479049L38.7572 0.42576L38.6676 0.796184ZM116.097 0.630631C115.863 0.863934 115.849 1.29139 116.051 1.96757C116.133 2.24198 116.344 2.94173 116.521 3.52255C116.697 4.10337 116.967 5.0538 117.122 5.63462C117.276 6.21544 117.529 7.12932 117.685 7.66546C118.325 9.87274 118.638 10.9655 118.894 11.8896C119.144 12.7918 119.36 13.5364 120.12 16.1137C120.278 16.6499 120.534 17.5638 120.69 18.1446C120.961 19.1598 121.356 20.4953 121.844 22.0438C122.091 22.8305 122.508 24.3551 122.74 25.324C122.819 25.6537 123.034 26.3264 123.218 26.819L123.553 27.7147H126.533H129.513L129.674 27.2756C129.99 26.4164 130.321 25.3594 130.6 24.3183C130.986 22.8792 131.704 20.4331 132.384 18.2375C132.52 17.7971 132.632 17.3061 132.632 17.1464C132.632 16.9865 132.736 16.6158 132.864 16.3224C133.083 15.8169 133.532 14.3276 134.173 11.9708C134.464 10.9026 134.843 9.60613 135.386 7.82792C135.549 7.29178 135.811 6.3779 135.967 5.79708C136.123 5.21627 136.464 4.08679 136.723 3.28713C137.012 2.39665 137.176 1.57798 137.147 1.17506L137.098 0.516905L134.69 0.487986L132.281 0.459229L132.027 1.05662C131.787 1.62428 130.803 5.07037 130.534 6.28449C130.465 6.59724 130.287 7.23703 130.139 7.70607C129.518 9.67745 129.383 10.1601 129.383 10.4188C129.383 10.5687 129.237 11.1439 129.059 11.6968C128.88 12.2496 128.586 13.2503 128.406 13.9204C127.866 15.9199 127.647 16.7037 127.288 17.9124C127.1 18.5443 126.947 19.1792 126.947 19.3234C126.947 19.4677 126.868 19.7915 126.773 20.043C126.629 20.4219 126.574 20.456 126.455 20.2422C126.331 20.0208 126.107 19.1787 125.885 18.097C125.853 17.9366 125.752 17.5711 125.662 17.2846C125.498 16.7597 124.667 13.7555 124.249 12.1739C124.125 11.7049 123.908 10.9005 123.767 10.3868C123.626 9.87306 123.341 8.83116 123.134 8.07162C122.927 7.31209 122.636 6.25199 122.486 5.71585C122.337 5.17971 122.103 4.33894 121.967 3.84748C121.831 3.35602 121.598 2.48048 121.45 1.90194C121.242 1.09074 121.088 0.803008 120.774 0.645252C120.228 0.369546 116.37 0.357524 116.097 0.630631ZM196.344 0.543225C196.184 0.607886 196.141 3.46796 196.141 14.079C196.141 26.1973 196.166 27.5427 196.398 27.6315C196.834 27.7987 200.854 27.7404 201.187 27.562C201.487 27.4015 201.501 27.1726 201.501 22.539C201.501 19.8688 201.561 17.6599 201.634 17.63C201.706 17.6003 202.096 17.168 202.499 16.6694L203.232 15.763L203.534 16.2632C203.937 16.9305 204.128 17.2619 204.665 18.2258C204.914 18.6726 205.192 19.1312 205.282 19.2451C205.543 19.5754 206.861 21.9244 206.861 22.0599C206.861 22.1276 206.959 22.281 207.079 22.4009C207.199 22.5206 207.679 23.3119 208.146 24.159C209.419 26.4702 210.071 27.4671 210.39 27.5935C210.549 27.6561 211.898 27.7124 213.388 27.7188C215.932 27.7295 216.104 27.7108 216.198 27.4151C216.296 27.1059 215.929 26.2811 215.073 24.887C214.662 24.2161 214.352 23.675 213.819 22.6937C213.649 22.3809 213.371 21.9057 213.2 21.6376C213.029 21.3696 212.787 20.9674 212.663 20.7441C212.539 20.5207 212.267 20.0454 212.059 19.688C211.851 19.3306 211.571 18.8188 211.437 18.5508C211.303 18.2827 211.004 17.7698 210.773 17.4109C210.542 17.0518 210.26 16.6132 210.147 16.4361C210.034 16.2588 209.833 15.8944 209.701 15.6263C209.568 15.3583 209.281 14.8465 209.062 14.4891C208.613 13.755 208.449 13.4662 207.622 11.9598L207.036 10.8927L207.556 10.2539C207.842 9.90247 208.133 9.54195 208.202 9.45259C208.271 9.36324 208.491 9.09955 208.691 8.86658C208.891 8.6336 209.164 8.27942 209.298 8.07975C209.432 7.87991 209.709 7.52216 209.914 7.2848C210.119 7.04743 210.447 6.64581 210.645 6.39236C210.842 6.13892 211.08 5.84648 211.174 5.7425C211.267 5.63852 211.92 4.82228 212.623 3.92871C213.326 3.03514 214.035 2.17326 214.199 2.01339C214.584 1.63598 214.598 0.672386 214.22 0.527465C214.069 0.469465 212.811 0.432095 211.425 0.444605C209.084 0.465564 208.878 0.492047 208.536 0.816981C208.332 1.00934 208.165 1.23371 208.163 1.31559C208.162 1.39748 208.048 1.58025 207.909 1.72176C207.771 1.86327 207.229 2.56399 206.704 3.27885C206.179 3.9937 205.52 4.87102 205.239 5.22845C204.958 5.58588 204.253 6.49976 203.673 7.25929C203.093 8.01882 202.518 8.76243 202.397 8.91174C202.275 9.06105 202.095 9.33513 201.995 9.52099C201.568 10.3187 201.501 9.75722 201.501 5.40245C201.501 1.56807 201.465 0.910725 201.246 0.690907C201.037 0.482461 200.584 0.437945 198.769 0.448505C197.547 0.455491 196.456 0.498221 196.344 0.543225ZM234.347 0.627869C234.062 0.912837 234.059 27.2502 234.344 27.5352C234.49 27.6814 236.495 27.7301 242.367 27.7301C249.355 27.7301 250.205 27.7025 250.293 27.4731C250.347 27.3318 250.392 26.3108 250.392 25.2043C250.392 23.3815 250.362 23.1767 250.078 23.0243C249.88 22.9185 247.86 22.8561 244.636 22.8561H239.509V19.772V16.6879L243.61 16.6445L247.712 16.6011L247.757 14.3391C247.791 12.6386 247.751 12.0444 247.595 11.9452C247.48 11.8727 245.615 11.8123 243.448 11.8108L239.509 11.8084V8.55903V5.30968H244.674C248.475 5.30968 249.891 5.25818 250.035 5.11472C250.238 4.91115 250.321 1.18887 250.133 0.698542C250.048 0.477262 249.121 0.446556 242.291 0.438757C236.411 0.432096 234.497 0.477587 234.347 0.627869ZM91.3124 5.37906C91.5906 5.5438 91.9561 5.90643 92.1245 6.18473C92.4099 6.65605 92.4341 7.16847 92.4792 13.6767C92.5122 18.4159 92.4697 20.895 92.3472 21.3848C92.1593 22.1366 91.6135 22.7736 90.9368 23.0308C90.4119 23.2305 85.925 23.2222 85.2028 23.0202C84.1904 22.737 83.7845 22.1182 83.5742 20.5364C83.3178 18.61 83.4325 7.2047 83.7148 6.54053C83.9789 5.91959 84.6184 5.33682 85.169 5.21562C85.411 5.16233 85.682 5.09003 85.7713 5.05477C85.8606 5.01952 87.0301 5.01074 88.3702 5.03511C90.393 5.07183 90.8925 5.13032 91.3124 5.37906ZM167.96 5.31943C168.541 5.59384 168.778 5.85752 169.1 6.58862C169.3 7.04499 169.34 8.29729 169.34 14.0821C169.34 23.4551 169.519 23.063 165.203 23.1554C161.648 23.2314 161.018 23.0105 160.508 21.508C160.12 20.3655 160.115 8.14766 160.502 6.7688C160.775 5.79595 161.198 5.40196 162.264 5.12886C163.101 4.91391 167.406 5.05802 167.96 5.31943ZM12.2372 5.5581C13.2995 5.98327 13.4822 6.49228 13.548 9.20889C13.6138 11.9253 13.4296 13.0425 12.8218 13.6142C12.4202 13.9918 12.3275 14.003 9.17396 14.0517L5.93807 14.1019V9.70572V5.30968H8.77731C10.9462 5.30968 11.7631 5.36834 12.2372 5.5581ZM50.4196 5.56281C51.4671 5.98213 51.6615 6.64143 51.6615 9.77363C51.6615 11.9081 51.6108 12.4826 51.3802 12.9638C50.8862 13.9945 50.8787 13.9965 47.2514 14.0543L43.9462 14.1068V9.70832V5.30968H46.8666C49.1322 5.30968 49.9289 5.36638 50.4196 5.56281Z" fill="#F5F5F5"/>
<path fill-rule="evenodd" clip-rule="evenodd" d="M83.8222 0.465218C81.7225 0.880484 79.7503 2.34041 78.9825 4.04778C78.1021 6.00583 78.0557 6.50818 78.0602 14.0278C78.0639 20.2168 78.0976 21.1312 78.3653 22.287C78.8829 24.5235 80.1635 26.2461 81.9543 27.115C83.2636 27.7503 83.4801 27.779 87.4969 27.8494C90.4047 27.9002 91.4303 27.8603 92.4102 27.6578C94.4937 27.2273 96.1621 25.9657 97.1013 24.1104C97.8941 22.5442 98.0349 21.0305 98.0318 14.1017C98.0283 6.20047 97.9008 5.29634 96.4834 3.11587C96.0829 2.49947 95.171 1.57243 94.9655 1.57243C94.8796 1.57243 94.7126 1.4782 94.5945 1.36318C94.3741 1.14823 93.0101 0.585769 92.4308 0.470905C91.6821 0.322248 84.5682 0.317698 83.8222 0.465218ZM161.53 0.340118C161.493 0.37716 161.122 0.435973 160.705 0.470741C159.586 0.564322 157.645 1.58251 156.838 2.49898C155.801 3.67817 155.221 5.0554 155.024 6.81167C154.922 7.7223 154.882 11.0685 154.922 15.3009C154.987 22.1955 154.993 22.2998 155.374 23.2618C156.031 24.9235 157.161 26.4167 157.951 26.6674C158.14 26.7275 158.295 26.8448 158.295 26.9282C158.295 27.0115 158.35 27.0661 158.417 27.0495C158.484 27.033 158.831 27.1487 159.189 27.3066C160.222 27.7634 160.752 27.811 164.792 27.8094C168.513 27.8081 169.393 27.7548 169.794 27.5066C169.902 27.44 169.99 27.4283 169.99 27.4806C169.99 27.5327 170.209 27.4625 170.476 27.3243C170.743 27.1862 171.017 27.0694 171.085 27.0648C171.247 27.0538 172.258 26.2848 172.67 25.8585C173.605 24.8925 174.101 23.8605 174.461 22.1359C174.765 20.6782 174.81 7.78712 174.517 6.21249C174.211 4.57076 173.695 3.49929 172.751 2.55032C172.045 1.83985 171.168 1.0748 171.086 1.09705C171.064 1.10307 170.827 1.01972 170.559 0.912166C169.485 0.480654 167.709 0.289591 164.698 0.281305C162.993 0.276593 161.568 0.303075 161.53 0.340118ZM0.680934 0.680325C0.439729 0.921589 0.415527 2.14204 0.415527 14.0808C0.415527 21.3049 0.457271 27.3243 0.508111 27.4572C0.58364 27.6538 1.03503 27.7027 2.94274 27.7209C4.34872 27.7342 5.41505 27.6733 5.61127 27.5681C5.92589 27.3998 5.93807 27.2352 5.93807 23.1749V18.9564H9.3562C12.0065 18.9564 13.0191 18.8955 13.8636 18.6851C14.8412 18.4414 15.8964 17.9121 16.4545 17.3852C16.5656 17.2801 16.8214 17.0577 17.023 16.891C17.4514 16.536 17.6618 16.2169 18.1245 15.2197C18.9289 13.4865 18.9687 13.1831 18.8956 9.33836L18.8267 5.71534L18.3019 4.65931C18.0133 4.07849 17.6881 3.4486 17.5793 3.25965C17.3865 2.92529 16.171 1.67219 16.0086 1.64051C15.9639 1.6319 15.5985 1.47333 15.1965 1.28811C13.5218 0.517208 13.1588 0.480328 6.8938 0.446697C1.57948 0.418103 0.918241 0.442961 0.680934 0.680325ZM38.6642 0.808837C38.6167 1.00542 38.5979 7.12474 38.6226 14.4073L38.6673 27.6484H41.2661H43.865L43.9082 23.3024L43.9515 18.9564H46.3605H48.7696L49.0578 19.6469C49.2161 20.0266 49.4788 20.6298 49.6412 20.9872C50.2774 22.3866 50.811 23.6051 50.9574 23.9929C51.2577 24.7885 51.6685 25.7128 52.1488 26.6736L52.6361 27.6484H55.2349H57.8337L57.8864 27.1881C57.9362 26.7535 57.7265 26.1269 57.1798 25.0764C57.0481 24.8234 56.9381 24.531 56.9353 24.4265C56.9326 24.3221 56.7505 23.871 56.5307 23.4243C56.311 22.9775 56.1305 22.5296 56.1297 22.4287C56.1289 22.3279 56.0186 22.1546 55.8846 22.0433C55.7506 21.932 55.641 21.7003 55.641 21.5284C55.641 21.2719 55.0207 19.8154 54.3216 18.4307C54.0947 17.9813 54.1466 17.8245 54.707 17.2659C55.614 16.362 55.9622 15.885 56.4136 14.928C56.8454 14.0125 56.8514 13.9519 56.9056 10.0017C56.9604 6.01607 56.9592 5.99885 56.5406 4.96523C55.4446 2.2595 53.8249 1.02183 50.8352 0.605914C50.0983 0.503397 47.2581 0.432724 44.1521 0.439547L38.7506 0.45141L38.6642 0.808837ZM116.186 0.610627C116.03 0.701771 115.902 0.931987 115.902 1.12224C115.902 1.47219 115.941 1.62491 116.525 3.52204C116.703 4.10286 116.894 4.76085 116.948 4.98424C117.104 5.62469 117.446 6.8518 118.08 9.04592C118.403 10.1629 118.779 11.4789 118.916 11.9703C119.214 13.0426 119.682 14.6475 120.053 15.8695C120.564 17.5568 121.451 20.6626 121.583 21.2309C121.655 21.5437 121.824 22.1286 121.958 22.5307C122.092 22.9328 122.36 23.8467 122.554 24.5615C122.748 25.2764 123.056 26.2782 123.239 26.7876L123.57 27.7142H126.541H129.513L129.677 27.275C129.952 26.5422 130.32 25.316 130.931 23.0993C131.251 21.9377 131.647 20.5851 131.812 20.0937C131.976 19.6022 132.232 18.7249 132.38 18.1441C132.529 17.5633 132.724 16.8687 132.813 16.6006C133.116 15.6907 133.797 13.3562 134.117 12.1328C134.292 11.4626 134.582 10.4391 134.762 9.85825C135.458 7.60597 135.693 6.81541 135.967 5.79658C136.123 5.21576 136.464 4.08628 136.723 3.28662C137.012 2.39614 137.176 1.57747 137.147 1.17455L137.098 0.516396L134.692 0.48244L132.285 0.448646L132.037 1.0423C131.9 1.3687 131.764 1.74952 131.733 1.88843C131.614 2.4249 130.985 4.77563 130.774 5.47164C130.074 7.77624 129.511 9.80042 129.44 10.2644C129.413 10.4431 129.246 11.0646 129.069 11.6454C128.891 12.2262 128.595 13.2498 128.412 13.9199C128.228 14.5901 127.974 15.504 127.848 15.9508C127.287 17.94 127.071 18.7595 126.935 19.4141C126.661 20.7387 126.449 20.6631 126.108 19.1189C125.868 18.0312 125.859 17.9918 125.818 17.941C125.773 17.8851 125.673 17.5053 125.55 16.9256C125.494 16.6575 125.206 15.5974 124.91 14.5698C124.432 12.9086 124.093 11.668 123.265 8.55852C123.134 8.06705 122.963 7.44562 122.885 7.17755C122.806 6.90948 122.671 6.43426 122.585 6.12151C122.067 4.23787 121.684 2.82733 121.445 1.92271C121.079 0.538979 120.891 0.446859 118.419 0.445884C117.347 0.445397 116.342 0.519483 116.186 0.610627ZM196.425 0.547101C196.157 0.617124 196.141 1.39875 196.141 14.0769C196.141 26.1968 196.166 27.5421 196.398 27.631C196.834 27.7982 200.854 27.7399 201.187 27.5615C201.487 27.401 201.501 27.1725 201.501 22.5916V17.7901L202.313 16.8786C202.76 16.3772 203.126 15.8903 203.126 15.7964C203.126 15.7027 203.288 15.8817 203.485 16.1945C203.869 16.8047 203.968 16.9748 204.665 18.2253C204.914 18.6721 205.192 19.1307 205.282 19.2446C205.543 19.5749 206.861 21.9239 206.861 22.0594C206.861 22.1271 206.959 22.2805 207.079 22.4004C207.199 22.5201 207.679 23.3113 208.146 24.1584C209.419 26.4697 210.071 27.4666 210.39 27.593C210.549 27.6555 211.898 27.7119 213.388 27.7183C215.932 27.729 216.104 27.7103 216.198 27.4146C216.296 27.1054 215.929 26.2806 215.073 24.8865C214.662 24.2156 214.352 23.6745 213.819 22.6932C213.649 22.3804 213.369 21.9052 213.195 21.6371C213.022 21.369 212.716 20.8573 212.516 20.4998C212.315 20.1424 212.059 19.7038 211.947 19.525C211.835 19.3463 211.623 18.9458 211.477 18.6352C211.331 18.3244 211.018 17.7748 210.783 17.4139C210.155 16.4536 209.986 16.1759 209.646 15.5446C209.143 14.6103 208.81 14.0289 208.482 13.5138C208.311 13.2457 208.033 12.7705 207.864 12.4577C207.695 12.145 207.441 11.6756 207.299 11.4147C207.007 10.8756 207.055 10.746 207.916 9.77702C208.679 8.91708 209.004 8.51498 209.298 8.0638C209.432 7.85812 209.797 7.3933 210.11 7.03084C210.422 6.66821 210.733 6.29698 210.799 6.20599C211.134 5.74621 212.093 4.53908 212.351 4.25314C212.512 4.07442 212.928 3.56265 213.275 3.11587C213.623 2.66908 214.039 2.17275 214.201 2.01288C214.584 1.63482 214.596 0.671227 214.22 0.526956C214.069 0.468956 212.811 0.431587 211.425 0.444097C209.084 0.465055 208.878 0.491538 208.536 0.816472C208.332 1.00883 208.165 1.2332 208.163 1.31508C208.162 1.39697 208.048 1.57974 207.911 1.72125C207.613 2.0275 206.013 4.14071 205.796 4.5152C205.712 4.65947 205.443 5.02502 205.198 5.32753C204.135 6.64303 203.297 7.73887 202.574 8.7616C202.147 9.36484 201.731 9.85825 201.649 9.85825C201.564 9.85825 201.501 7.97867 201.501 5.40194C201.501 1.56756 201.465 0.910216 201.246 0.690398C201.038 0.482115 200.597 0.438573 198.85 0.454008C197.673 0.464406 196.582 0.506322 196.425 0.547101ZM234.433 0.609003C234.166 0.766109 234.149 1.58072 234.149 14.058C234.149 24.1716 234.196 27.3862 234.344 27.5347C234.49 27.6809 236.495 27.7296 242.365 27.7296H250.192L250.29 27.3641C250.343 27.1629 250.388 26.142 250.39 25.0952C250.392 23.3786 250.361 23.1755 250.078 23.0238C249.88 22.918 247.86 22.8556 244.636 22.8556H239.509V19.7715V16.6874L243.61 16.644L247.712 16.6006L247.757 14.3386C247.791 12.6381 247.751 12.0439 247.595 11.9447C247.48 11.8722 245.615 11.8118 243.448 11.8103L239.509 11.8079V8.55852V5.30917H244.674C248.475 5.30917 249.891 5.25767 250.035 5.11421C250.238 4.91064 250.321 1.18836 250.133 0.698197C250.048 0.476754 249.133 0.446861 242.377 0.444424C237.413 0.442799 234.618 0.500637 234.433 0.609003ZM91.3124 5.37855C91.5906 5.54329 91.9561 5.90592 92.1245 6.18422C92.4099 6.65554 92.4341 7.16796 92.4792 13.6762C92.5314 21.1773 92.4783 21.8175 91.7493 22.4932C91.0897 23.1047 90.6922 23.1806 88.1566 23.1796C85.4611 23.1786 84.8128 23.0522 84.2154 22.4114C83.4988 21.6426 83.4231 20.751 83.4666 13.595C83.51 6.46578 83.516 6.41525 84.4189 5.60876C85.0391 5.05508 85.3545 5.01023 88.3702 5.04825C90.4099 5.07392 90.8889 5.1277 91.3124 5.37855ZM167.96 5.31827C168.541 5.59349 168.778 5.85734 169.1 6.58811C169.301 7.04578 169.339 8.28882 169.331 14.1428C169.321 21.0178 169.315 21.1632 168.965 21.8644C168.384 23.0325 167.931 23.1806 164.941 23.1806C161.747 23.1806 161.286 23.0425 160.569 21.8725C160.185 21.2444 160.115 8.23894 160.488 6.84108C160.762 5.819 161.096 5.47912 162.168 5.13403C162.873 4.90707 167.395 5.05085 167.96 5.31827ZM12.2372 5.55759C13.2995 5.98276 13.4822 6.49177 13.548 9.20838C13.6138 11.9248 13.4296 13.042 12.8218 13.6137C12.4202 13.9913 12.3275 14.0025 9.17396 14.0512L5.93807 14.1014V9.70521V5.30917H8.77731C10.9462 5.30917 11.7631 5.36783 12.2372 5.55759ZM50.7368 5.63411C51.5124 6.13841 51.6615 6.79331 51.6615 9.69579C51.6615 11.9037 51.6119 12.48 51.3802 12.9633C50.8862 13.994 50.8787 13.996 47.2514 14.0538L43.9462 14.1063V9.69562V5.28481L47.1541 5.33761C49.6625 5.37887 50.4438 5.44353 50.7368 5.63411Z" fill="#F5F5F5"/>
<path fill-rule="evenodd" clip-rule="evenodd" d="M83.8222 0.465218C81.7225 0.880484 79.7503 2.34041 78.9825 4.04778C78.1021 6.00583 78.0557 6.50818 78.0602 14.0278C78.0648 21.7065 78.1668 22.7102 79.1103 24.3666C80.0004 25.9288 81.7251 27.276 83.3349 27.6668C83.6029 27.7317 85.4759 27.814 87.4969 27.8494C90.4047 27.9002 91.4303 27.8603 92.4102 27.6578C94.4937 27.2273 96.1621 25.9657 97.1013 24.1104C97.8941 22.5442 98.0349 21.0305 98.0318 14.1017C98.0283 6.20047 97.9008 5.29634 96.4834 3.11587C96.0829 2.49947 95.171 1.57243 94.9655 1.57243C94.8796 1.57243 94.7126 1.4782 94.5945 1.36318C94.3741 1.14823 93.0101 0.585769 92.4308 0.470905C91.6821 0.322248 84.5682 0.317698 83.8222 0.465218ZM161.53 0.340118C161.493 0.37716 161.122 0.435973 160.705 0.470741C159.586 0.564322 157.645 1.58251 156.838 2.49898C155.801 3.67817 155.221 5.0554 155.024 6.81167C154.922 7.7223 154.882 11.0685 154.922 15.3009C154.987 22.1955 154.993 22.2998 155.374 23.2618C156.031 24.9235 157.161 26.4167 157.951 26.6674C158.14 26.7275 158.295 26.8448 158.295 26.9282C158.295 27.0115 158.35 27.0694 158.417 27.0565C158.484 27.0437 158.795 27.1327 159.107 27.2544C159.42 27.3759 159.731 27.4594 159.798 27.4401C159.865 27.4206 159.92 27.4594 159.92 27.5266C159.921 27.7447 160.913 27.8013 164.792 27.8047C168.511 27.8079 169.392 27.7553 169.794 27.5066C169.902 27.44 169.99 27.4283 169.99 27.4806C169.99 27.5327 170.209 27.4625 170.476 27.3243C170.743 27.1862 171.017 27.0694 171.085 27.0648C171.247 27.0538 172.258 26.2848 172.67 25.8585C173.605 24.8925 174.101 23.8605 174.461 22.1359C174.65 21.2282 174.7 19.5413 174.7 14.0921C174.701 6.2869 174.656 5.82338 173.702 3.78166C173.427 3.19239 171.323 1.0332 171.086 1.09705C171.064 1.10307 170.827 1.01972 170.559 0.912166C169.485 0.480654 167.709 0.289591 164.698 0.281305C162.993 0.276593 161.568 0.303075 161.53 0.340118ZM0.680934 0.680325C0.439729 0.921589 0.415527 2.14204 0.415527 14.0808C0.415527 21.3049 0.457271 27.3244 0.508273 27.4575C0.584127 27.6554 1.0347 27.7022 2.9853 27.7157C5.24402 27.7311 5.83038 27.6362 5.87716 27.2481C5.88837 27.1555 5.90656 25.252 5.91777 23.0181L5.93807 18.9564H9.3562C13.8946 18.9564 15.06 18.668 16.7395 17.1296C17.0075 16.8841 17.2817 16.683 17.3486 16.6827C17.4155 16.6822 17.4704 16.5774 17.4704 16.4497C17.4704 16.3222 17.5651 16.121 17.6809 16.0029C17.7968 15.885 18.1075 15.2775 18.3713 14.6531L18.8511 13.5181L18.8475 9.86037C18.8456 7.8487 18.797 6.01997 18.7397 5.79658C18.6354 5.39106 17.9587 3.90952 17.5809 3.25965C17.3858 2.92416 16.1699 1.67202 16.0086 1.64051C15.9639 1.6319 15.5985 1.47333 15.1965 1.28811C13.5218 0.517208 13.1588 0.480328 6.8938 0.446697C1.57948 0.418103 0.918241 0.442961 0.680934 0.680325ZM38.6642 0.808837C38.6167 1.00542 38.5979 7.12474 38.6226 14.4073L38.6673 27.6484H41.2661H43.865L43.9082 23.3024L43.9515 18.9564H46.3605H48.7696L49.0578 19.6469C49.2161 20.0266 49.4789 20.6298 49.6417 20.9872C50.3908 22.633 50.9099 23.8355 51.4651 25.2107C51.5731 25.4783 51.8808 26.1363 52.1488 26.6729L52.6361 27.6484H55.2349H57.8337L57.8864 27.1881C57.9362 26.7535 57.7265 26.1269 57.1798 25.0764C57.0481 24.8234 56.9381 24.531 56.9353 24.4265C56.9326 24.3221 56.7505 23.871 56.5307 23.4243C56.311 22.9775 56.1305 22.5296 56.1297 22.4287C56.1289 22.3279 56.0186 22.1546 55.8846 22.0433C55.7506 21.932 55.641 21.6724 55.641 21.4664C55.641 21.2604 55.5497 20.9934 55.4379 20.8732C55.3263 20.753 55.2136 20.5466 55.1875 20.4147C55.1469 20.2085 54.8449 19.5213 54.3159 18.4307C54.0964 17.9779 54.1486 17.8226 54.707 17.2659C55.614 16.362 55.9622 15.885 56.4136 14.928C56.8455 14.0124 56.8514 13.9532 56.9027 10.0207C56.9542 6.07309 56.9513 6.0315 56.5382 4.98424C56.0007 3.62082 55.2606 2.54301 54.5226 2.04944C54.1997 1.83335 53.8983 1.60688 53.8528 1.54628C53.6538 1.28129 52.0122 0.769681 50.8352 0.605914C50.0983 0.503397 47.2581 0.432724 44.1521 0.439547L38.7506 0.45141L38.6642 0.808837ZM116.186 0.610627C116.03 0.701771 115.902 0.931987 115.902 1.12224C115.902 1.47934 115.967 1.72937 116.533 3.52204C116.716 4.10286 117.008 5.1264 117.18 5.79658C117.352 6.46675 117.758 7.92896 118.08 9.04592C118.403 10.1629 118.779 11.4789 118.916 11.9703C119.214 13.0426 119.682 14.6475 120.053 15.8695C120.646 17.8261 121.457 20.6942 121.573 21.2435C121.64 21.563 121.74 21.8969 121.794 21.9853C121.899 22.1544 122.468 24.1081 122.735 25.2114C122.821 25.5688 123.044 26.2782 123.231 26.7876L123.57 27.7142H126.541H129.513L129.677 27.275C129.952 26.5422 130.32 25.316 130.931 23.0993C131.251 21.9377 131.647 20.5851 131.812 20.0937C131.976 19.6022 132.232 18.7249 132.38 18.1441C132.529 17.5633 132.724 16.8687 132.813 16.6006C133.116 15.6907 133.797 13.3562 134.117 12.1328C134.292 11.4626 134.582 10.4391 134.762 9.85825C135.458 7.60597 135.693 6.81541 135.967 5.79658C136.123 5.21576 136.464 4.08628 136.723 3.28662C137.012 2.39614 137.176 1.57747 137.147 1.17455L137.098 0.516396L134.692 0.48244L132.285 0.448646L132.037 1.0423C131.9 1.3687 131.763 1.74952 131.733 1.88843C131.506 2.90807 130.79 5.43362 130.657 5.68204C130.567 5.8497 130.532 6.025 130.578 6.07147C130.625 6.11794 130.494 6.64173 130.288 7.23538C129.917 8.30328 129.61 9.39636 129.462 10.1832C129.42 10.4066 129.242 11.0646 129.066 11.6454C128.89 12.2262 128.595 13.2498 128.412 13.9199C128.228 14.5901 127.974 15.504 127.848 15.9508C127.287 17.94 127.071 18.7595 126.935 19.4141C126.75 20.3072 126.623 20.5197 126.444 20.2329C126.323 20.0396 125.955 18.5231 125.947 18.187C125.946 18.1187 125.869 17.9715 125.776 17.8598C125.683 17.7481 125.656 17.6567 125.714 17.6567C125.773 17.6567 125.753 17.5288 125.669 17.3724C125.586 17.2159 125.474 16.8322 125.42 16.5194C125.366 16.2067 125.135 15.3293 124.907 14.5698C124.46 13.0814 124.008 11.5013 123.953 11.2392C123.781 10.4059 123.634 9.83486 123.444 9.25696C123.321 8.8815 123.184 8.40628 123.139 8.20093C123.095 7.99541 122.988 7.57153 122.9 7.25878C122.439 5.60162 121.745 3.05852 121.445 1.92271C121.079 0.538979 120.891 0.446859 118.419 0.445884C117.347 0.445397 116.342 0.519483 116.186 0.610627ZM196.425 0.547101C196.157 0.617124 196.141 1.39875 196.141 14.0769C196.141 26.1968 196.166 27.5421 196.398 27.631C196.926 27.8338 200.921 27.728 201.217 27.5035C201.476 27.3066 201.501 26.871 201.501 22.5388V17.7901L202.313 16.8786C202.76 16.3772 203.126 15.8903 203.126 15.7964C203.127 15.6401 203.582 16.2954 204.024 17.088C204.473 17.895 204.675 18.2312 204.753 18.3065C204.8 18.3512 204.928 18.5706 205.039 18.7939C205.15 19.0173 205.605 19.8141 206.051 20.5643C206.497 21.3146 206.861 21.9858 206.861 22.0556C206.861 22.1253 206.962 22.2837 207.086 22.4074C207.21 22.5312 207.484 22.951 207.695 23.3406C209.387 26.4582 210.076 27.5202 210.477 27.6276C211.109 27.7971 216.118 27.7436 216.14 27.5672C216.151 27.4778 216.174 27.3134 216.191 27.2016C216.223 26.9834 215.719 25.9386 215.073 24.8865C214.662 24.2156 214.352 23.6745 213.819 22.6932C213.649 22.3804 213.369 21.9052 213.195 21.6371C213.022 21.369 212.716 20.8573 212.516 20.4998C212.315 20.1424 212.06 19.7038 211.949 19.525C211.838 19.3463 211.654 19.0173 211.541 18.7939C211.427 18.5706 211.26 18.334 211.169 18.2684C211.078 18.2027 211.061 18.148 211.133 18.1465C211.204 18.1452 211.058 17.8321 210.808 17.451C210.159 16.4609 209.991 16.1849 209.646 15.5446C209.143 14.6103 208.81 14.0289 208.482 13.5138C208.311 13.2457 208.033 12.7705 207.864 12.4577C207.695 12.145 207.441 11.6756 207.299 11.4147C207.009 10.8803 207.06 10.74 207.871 9.82901C208.165 9.50001 208.55 9.04381 208.729 8.81505C208.908 8.5863 209.182 8.24106 209.338 8.04772C209.495 7.85455 209.622 7.65244 209.622 7.59866C209.622 7.54472 209.915 7.19022 210.272 6.81086C210.63 6.43133 210.922 6.07505 210.922 6.01899C210.922 5.9298 211.383 5.36344 212.358 4.25314C212.515 4.07442 212.928 3.56265 213.275 3.11587C213.623 2.66908 214.039 2.17275 214.201 2.01288C214.584 1.63482 214.596 0.671227 214.22 0.526956C214.069 0.468956 212.811 0.431587 211.425 0.444097C209.084 0.465055 208.878 0.491538 208.536 0.816472C208.332 1.00883 208.165 1.2332 208.163 1.31508C208.162 1.39697 208.048 1.57974 207.911 1.72125C207.613 2.0275 206.013 4.14071 205.796 4.5152C205.712 4.65947 205.443 5.02502 205.198 5.32753C203.786 7.07454 203.288 7.74147 203.288 7.88412C203.288 7.97201 203.226 8.06835 203.151 8.09825C203.075 8.12798 202.739 8.53626 202.404 9.0053C202.069 9.47434 201.729 9.85825 201.648 9.85825C201.564 9.85825 201.501 7.96242 201.501 5.41559C201.501 1.31801 201.478 0.95197 201.204 0.704045C200.957 0.480815 200.551 0.438411 198.808 0.454008C197.654 0.464406 196.582 0.506322 196.425 0.547101ZM234.433 0.609003C234.166 0.766109 234.149 1.58072 234.149 14.058C234.149 24.1716 234.196 27.3862 234.344 27.5347C234.49 27.6809 236.495 27.7296 242.365 27.7296H250.192L250.29 27.3641C250.343 27.1629 250.388 26.1813 250.39 25.1823C250.391 23.7458 250.339 23.3128 250.137 23.1109C249.915 22.8894 249.193 22.8556 244.695 22.8556H239.509V19.7715V16.6874L243.61 16.644L247.712 16.6006L247.757 14.3386C247.791 12.6381 247.751 12.0439 247.595 11.9447C247.48 11.8722 245.615 11.8118 243.448 11.8103L239.509 11.8079V8.55852V5.30917H244.674C248.475 5.30917 249.891 5.25767 250.035 5.11421C250.238 4.91064 250.321 1.18836 250.133 0.698197C250.048 0.476754 249.133 0.446861 242.377 0.444424C237.413 0.442799 234.618 0.500637 234.433 0.609003ZM91.3124 5.37855C91.5906 5.54329 91.9561 5.90592 92.1245 6.18422C92.4099 6.65554 92.4341 7.16796 92.4792 13.6762C92.5325 21.3599 92.4898 21.8254 91.6618 22.5646C90.9939 23.1612 90.5444 23.2251 87.4864 23.157L84.8871 23.0993L84.3405 22.5307C83.4817 21.6371 83.4221 21.0285 83.466 13.595C83.508 6.4635 83.5136 6.41736 84.4189 5.60876C85.0391 5.05508 85.3545 5.01023 88.3702 5.04825C90.4099 5.07392 90.8889 5.1277 91.3124 5.37855ZM167.96 5.31827C168.543 5.5943 168.778 5.85718 169.103 6.59608C169.31 7.06804 169.34 8.21782 169.303 14.232C169.262 20.8295 169.231 21.6655 169.016 21.8808C168.971 21.9255 168.857 22.1016 168.763 22.2722C168.67 22.4428 168.342 22.7169 168.035 22.8815C167.559 23.1367 167.092 23.1806 164.843 23.1806C161.681 23.1806 161.299 23.0636 160.569 21.8725C160.187 21.2478 160.12 8.09581 160.492 6.81313C160.804 5.74134 160.945 5.58163 161.883 5.24224C162.816 4.90382 167.2 4.95873 167.96 5.31827ZM12.2372 5.55759C13.2995 5.98276 13.4822 6.49177 13.548 9.20838C13.6138 11.9248 13.4296 13.042 12.8218 13.6137C12.4202 13.9913 12.3275 14.0025 9.17396 14.0512L5.93807 14.1014V9.70521V5.30917H8.77731C10.9462 5.30917 11.7631 5.36783 12.2372 5.55759ZM50.8994 5.77367C51.1948 5.98455 51.3964 6.19706 51.3474 6.24612C51.2983 6.29519 51.349 6.44466 51.4599 6.57837C51.603 6.75091 51.6615 7.62596 51.6615 9.59896C51.6615 11.8987 51.6131 12.4774 51.3802 12.9633C50.8862 13.994 50.8787 13.996 47.2514 14.0538L43.9462 14.1063V9.69562V5.28481L47.1541 5.33761C50.2219 5.38813 50.3856 5.40714 50.8994 5.77367Z" fill="#F5F5F5"/>
<path fill-rule="evenodd" clip-rule="evenodd" d="M84.1809 0.437762C83.9319 0.512821 83.4933 0.609977 83.2063 0.653518C81.7157 0.88016 79.6649 2.54268 78.9648 4.09213C78.1313 5.93695 78.0811 6.47845 78.0617 13.8257C78.0409 21.7099 78.143 22.6888 79.1627 24.3911C80.191 26.1079 81.851 27.3824 83.4324 27.6697C84.6649 27.8934 91.1191 27.9222 92.1052 27.7083C92.6413 27.592 93.1345 27.4856 93.2016 27.4718C93.2687 27.4581 93.36 27.4284 93.4047 27.4062C93.4493 27.3839 93.5406 27.3561 93.6077 27.3446C93.6748 27.3332 94.095 27.1145 94.5417 26.8588C95.4459 26.3412 96.3555 25.4047 96.8265 24.5061C96.9976 24.18 97.1939 23.8717 97.2631 23.8208C97.3322 23.7701 97.5092 23.2218 97.6564 22.6023C97.8781 21.6693 97.9328 20.2916 97.9749 14.5713C98.0028 10.7736 97.9609 7.33741 97.8818 6.93531C97.8027 6.5332 97.698 5.94832 97.6492 5.63557C97.5722 5.14232 97.0086 3.97613 96.3631 2.97371C96.0128 2.43009 95.365 1.81012 94.9071 1.58055C94.6614 1.45724 94.4604 1.29575 94.4604 1.2215C94.4604 1.14725 94.3597 1.08649 94.2366 1.08649C94.1135 1.08649 93.7299 0.965615 93.3839 0.81777C93.0379 0.670088 92.5722 0.518831 92.3489 0.481626C91.5166 0.343529 84.6165 0.306488 84.1809 0.437762ZM161.513 0.358477C161.467 0.404942 161.097 0.468954 160.691 0.50096C159.636 0.584143 157.911 1.45383 157.02 2.35211C156.602 2.77306 156.018 3.61237 155.723 4.21739C154.951 5.79446 154.841 7.32295 154.91 15.4635C154.961 21.5622 154.997 22.3473 155.25 22.8415C155.406 23.1456 155.533 23.4756 155.533 23.5749C155.533 24.1068 156.92 26.1064 157.289 26.1064C157.406 26.1064 157.462 26.1711 157.413 26.25C157.364 26.329 157.543 26.4842 157.809 26.5946C158.076 26.7053 158.295 26.8599 158.295 26.9384C158.295 27.017 158.349 27.0708 158.416 27.058C158.483 27.0452 158.794 27.1342 159.107 27.2559C159.419 27.3774 159.73 27.4609 159.797 27.4416C159.864 27.4221 159.919 27.4609 159.919 27.528C159.92 27.7462 160.912 27.8027 164.792 27.8062C168.51 27.8094 169.391 27.7568 169.794 27.508C169.901 27.4414 169.989 27.4297 169.989 27.482C169.989 27.5342 170.227 27.4503 170.517 27.2957C170.807 27.141 171.1 27.0294 171.167 27.0478C171.234 27.0661 171.289 27.0081 171.289 26.9188C171.289 26.8294 171.394 26.7563 171.523 26.7563C171.652 26.7563 171.86 26.6106 171.984 26.4323C172.109 26.2543 172.241 26.1349 172.278 26.1669C172.314 26.199 172.512 26.0523 172.716 25.841C172.92 25.6296 173.045 25.4566 172.994 25.4566C172.942 25.4566 173.057 25.2921 173.249 25.091C173.734 24.5835 174.171 23.5201 174.459 22.1502C174.655 21.2139 174.7 19.6344 174.688 14.0026C174.672 6.17561 174.634 5.77935 173.702 3.78312C173.427 3.19385 171.322 1.03467 171.085 1.09852C171.063 1.10453 170.826 1.02183 170.558 0.914763C169.534 0.505833 167.406 0.280656 164.535 0.277407C162.919 0.275619 161.559 0.312173 161.513 0.358477ZM6.83067 0.559287C1.41127 0.596492 0.800867 0.627522 0.617811 0.874635C0.348343 1.2384 0.317644 27.4062 0.586787 27.4062C0.68132 27.4062 0.718028 27.4723 0.668163 27.553C0.559012 27.7295 5.07288 27.7691 5.50104 27.5954C5.7757 27.484 5.79471 27.1862 5.78041 23.2168L5.76498 18.9579H9.26222C11.1855 18.9579 12.7945 18.9532 12.8376 18.9473C12.8805 18.9416 13.1546 18.8636 13.4467 18.7743C13.7386 18.6848 14.1893 18.5736 14.448 18.5275C14.9735 18.4336 15.9996 17.8083 16.7388 17.1311C17.0068 16.8856 17.2809 16.6845 17.3479 16.6841C17.4148 16.6837 17.4697 16.5789 17.4697 16.4512C17.4697 16.3236 17.5611 16.1225 17.6727 16.0044C17.8634 15.8028 18.5027 14.3974 18.7309 13.6777C18.857 13.2806 18.8698 6.33337 18.7454 5.87927C18.5724 5.24809 17.9047 3.75469 17.5948 3.30612C17.3047 2.88614 15.9136 1.4397 16.0852 1.73636C16.1867 1.91199 16.136 1.90126 15.9039 1.69818C15.593 1.42621 13.409 0.552949 13.409 0.700469C13.409 0.740436 13.2812 0.71558 13.1247 0.645394C12.9683 0.575209 10.1361 0.536542 6.83067 0.559287ZM38.6691 0.960093C38.6168 1.25302 38.5949 7.37803 38.6202 14.5713L38.6665 27.6499H41.2654H43.8642L43.9074 23.3039L43.9508 18.9579H46.3659H48.7812L49.0703 19.5671C49.2294 19.9023 49.3596 20.2678 49.3596 20.3795C49.3596 20.4912 49.4205 20.5825 49.4951 20.5825C49.5695 20.5825 49.6304 20.6932 49.6304 20.8285C49.6304 20.9637 49.6997 21.2014 49.7845 21.3565C50.0775 21.8925 50.8946 23.7519 51.0151 24.1568C51.0817 24.3802 51.1856 24.5995 51.2462 24.6442C51.3068 24.6889 51.5206 25.1703 51.7213 25.7139C51.9221 26.2575 52.2252 26.9309 52.3951 27.2104L52.704 27.7184L55.2686 27.6841L57.833 27.6499L57.8859 27.1862C57.9173 26.9131 57.7422 26.3102 57.4602 25.7197C57.1969 25.1685 56.9309 24.4866 56.869 24.2046C56.8069 23.9225 56.6533 23.6064 56.5274 23.5019C56.4015 23.3973 56.2524 23.0658 56.196 22.7653C56.1397 22.4647 55.9915 22.1341 55.8668 22.0306C55.7422 21.9271 55.6402 21.6738 55.6402 21.4678C55.6402 21.2618 55.5254 20.9783 55.385 20.8378C55.2445 20.6974 55.1804 20.5825 55.2424 20.5825C55.3045 20.5825 55.2738 20.4844 55.1742 20.3645C55.0748 20.2446 55.0413 20.0984 55.1001 20.0396C55.1589 19.9808 55.1299 19.9327 55.0355 19.9327C54.9411 19.9327 54.7668 19.6037 54.6481 19.2016C54.5294 18.7995 54.3837 18.4705 54.3242 18.4705C54.2648 18.4705 54.1813 18.2877 54.1386 18.0643C54.0959 17.8409 54.1264 17.6581 54.2063 17.6581C54.3528 17.6581 54.9205 17.1049 55.603 16.2973C55.8057 16.0572 56.0914 15.5524 56.2378 15.1755C56.3841 14.7984 56.5836 14.3875 56.681 14.2624C56.7947 14.1164 56.8768 12.6088 56.9096 10.0621C56.9608 6.09356 56.9604 6.08853 56.5319 5.00958C56.0055 3.68385 55.2181 2.49914 54.6309 2.14968C54.3885 2.00541 54.0791 1.77633 53.9435 1.64067C53.8077 1.50484 53.5418 1.36398 53.3524 1.32759C53.1632 1.29104 52.9243 1.196 52.8218 1.11639C52.2949 0.707295 50.8824 0.613225 45.1032 0.602827C41.763 0.596815 38.9703 0.555062 38.8972 0.509733C38.8239 0.464567 38.7214 0.667164 38.6691 0.960093ZM132.011 1.08649C131.877 1.39924 131.774 1.78169 131.783 1.93619C131.791 2.09086 131.73 2.25967 131.646 2.31133C131.562 2.36316 131.494 2.53895 131.494 2.70239C131.494 2.86567 131.307 3.61074 131.078 4.35809C130.85 5.10544 130.643 5.82647 130.619 5.9605C130.482 6.71841 130.3 7.33254 130.099 7.71791C129.974 7.95771 129.871 8.31351 129.871 8.5088C129.87 8.70409 129.789 9.06964 129.691 9.32114C129.593 9.57263 129.478 9.99781 129.435 10.2659C129.393 10.534 129.247 11.0823 129.112 11.4844C128.976 11.8865 128.833 12.3835 128.794 12.589C128.755 12.7944 128.621 13.2696 128.496 13.645C128.37 14.0203 128.217 14.62 128.154 14.9774C128.091 15.3349 127.965 15.7729 127.872 15.9509C127.78 16.1288 127.678 16.5153 127.646 16.8097C127.613 17.1041 127.449 17.726 127.282 18.192C127.114 18.658 126.93 19.3107 126.874 19.6427C126.817 19.9746 126.703 20.288 126.621 20.3388C126.483 20.4243 126.075 19.2675 125.905 18.308C125.866 18.0846 125.819 17.8835 125.801 17.8612C125.783 17.839 125.753 17.7657 125.734 17.6988C125.715 17.6318 125.653 17.4672 125.597 17.3332C125.54 17.1992 125.461 16.8702 125.421 16.6021C125.381 16.334 125.333 16.0963 125.315 16.0741C125.296 16.0518 125.272 15.9785 125.26 15.9116C125.249 15.8447 125.155 15.4973 125.052 15.1399C124.632 13.6835 124.146 12.0265 124.016 11.6062C123.939 11.3606 123.906 11.1595 123.942 11.1595C123.978 11.1595 123.904 10.866 123.778 10.5073C123.651 10.1486 123.545 9.80139 123.541 9.73559C123.537 9.66979 123.463 9.39668 123.378 9.12861C123.292 8.86054 123.189 8.45844 123.15 8.23504C123.11 8.01165 123 7.62774 122.904 7.38209C122.809 7.13644 122.768 6.93531 122.814 6.93531C122.859 6.93531 122.825 6.80046 122.736 6.63555C122.648 6.47065 122.541 6.15985 122.498 5.94507C122.394 5.42566 121.812 3.26306 121.584 2.5487C121.484 2.23595 121.364 1.76382 121.316 1.49948C121.173 0.696085 120.901 0.609651 118.5 0.606726C117.294 0.605264 116.206 0.667977 116.083 0.746123C115.937 0.838567 115.891 1.0501 115.951 1.35278C116.11 2.15244 116.357 3.08922 116.61 3.84843C116.744 4.25054 116.963 4.98164 117.096 5.4731C117.23 5.96457 117.639 7.42677 118.007 8.72244C118.374 10.0181 118.785 11.4803 118.92 11.9718C119.417 13.7849 119.535 14.1687 119.645 14.3276C119.706 14.4169 119.805 14.7825 119.864 15.1399C119.923 15.4973 120.071 16.0456 120.191 16.3584C120.312 16.6711 120.608 17.6581 120.849 18.5517C121.466 20.8401 121.526 21.0522 121.815 21.9635C122.123 22.9331 122.484 24.2166 122.809 25.5053C122.941 26.0234 123.172 26.6814 123.325 26.9675C123.477 27.2534 123.588 27.5387 123.571 27.6014C123.554 27.6643 124.884 27.7157 126.526 27.7157H129.512L129.679 27.2765C129.883 26.7386 130.247 25.5995 130.288 25.3672C130.37 24.9071 131.712 20.3052 131.83 20.0797C131.905 19.9371 131.999 19.6347 132.041 19.4076C132.121 18.9631 132.554 17.3956 132.815 16.6021C132.903 16.334 133.001 16.005 133.033 15.871C133.065 15.737 133.271 15.0424 133.491 14.3276C133.71 13.6127 134.057 12.3698 134.261 11.5656C134.465 10.7614 134.687 10.0303 134.754 9.94095C134.821 9.85159 134.93 9.48604 134.997 9.12861C135.064 8.77118 135.213 8.25129 135.329 7.97331C135.445 7.69549 135.578 7.26024 135.624 7.00647C135.735 6.39397 136.159 4.9485 136.544 3.87459C136.714 3.39759 136.854 2.83529 136.854 2.62506C136.854 2.41482 136.917 2.20394 136.994 2.15634C137.071 2.10857 137.126 1.73473 137.116 1.32548L137.098 0.581383L134.677 0.549539L132.256 0.517857L132.011 1.08649ZM208.523 0.842791C208.355 1.02151 208.17 1.29559 208.113 1.45204C208.055 1.6085 207.932 1.73636 207.84 1.73636C207.748 1.73636 207.673 1.83839 207.673 1.963C207.673 2.08761 207.491 2.36186 207.269 2.57225C207.048 2.78265 206.865 3.01498 206.863 3.08825C206.862 3.16168 206.769 3.31408 206.657 3.42699C206.546 3.53991 206.308 3.83641 206.13 4.0858C205.951 4.33518 205.622 4.76751 205.399 5.04679C205.175 5.32591 204.938 5.62745 204.872 5.7168C204.806 5.80616 204.422 6.2947 204.019 6.80257C203.617 7.31028 203.287 7.79768 203.287 7.88558C203.287 7.97347 203.223 8.06982 203.145 8.09971C203.067 8.12944 202.711 8.572 202.355 9.08312C201.999 9.59424 201.661 9.96597 201.604 9.9091C201.547 9.85208 201.5 7.8755 201.5 5.51664C201.5 2.87071 201.436 1.10713 201.332 0.913303C201.177 0.623462 200.969 0.599091 198.652 0.599091H196.14V14.0665C196.14 26.1971 196.166 27.5436 196.397 27.6325C196.538 27.6867 197.617 27.7288 198.793 27.7259C200.444 27.722 201.006 27.6646 201.257 27.4752C201.435 27.3402 201.563 27.1963 201.541 27.1555C201.519 27.1147 201.5 24.9781 201.5 22.4077V17.734L202.312 16.8458C202.759 16.3573 203.125 15.8986 203.125 15.8266C203.125 15.7547 203.227 15.7899 203.351 15.9053C203.476 16.0205 203.548 16.1644 203.511 16.2253C203.474 16.2861 203.514 16.379 203.599 16.4317C203.684 16.4843 203.855 16.7269 203.978 16.9709C204.285 17.5798 204.65 18.2102 204.752 18.308C204.799 18.3527 204.929 18.572 205.042 18.7954C205.154 19.0188 205.497 19.6037 205.803 20.0951C206.109 20.5866 206.522 21.3359 206.722 21.7604C206.921 22.185 207.146 22.5321 207.222 22.5321C207.297 22.5321 207.504 22.8429 207.681 23.2226C208.017 23.9445 208.684 25.1419 209.587 26.646C210.239 27.7309 210.321 27.7527 213.679 27.7225C215.392 27.707 216.124 27.6445 216.137 27.5127C216.186 27.0245 216.043 26.6021 215.534 25.7321C215.23 25.2135 214.982 24.7201 214.982 24.6354C214.982 24.551 214.916 24.4818 214.835 24.4818C214.755 24.4818 214.617 24.2762 214.53 24.0252C214.442 23.774 214.248 23.4463 214.099 23.2969C213.949 23.1474 213.799 22.8764 213.764 22.6946C213.729 22.5128 213.586 22.2504 213.448 22.1115C213.309 21.9726 213.195 21.7786 213.195 21.6803C213.195 21.582 213.094 21.3863 212.97 21.2452C212.846 21.1041 212.548 20.6095 212.308 20.146C212.069 19.6825 211.768 19.2165 211.64 19.1106C211.513 19.0047 211.408 18.7808 211.408 18.6131C211.408 18.4453 211.323 18.308 211.219 18.308C211.115 18.308 211.076 18.2617 211.132 18.2052C211.189 18.1486 211.034 17.8013 210.788 17.4334C210.102 16.4063 209.95 16.1509 209.743 15.6679C209.637 15.4223 209.493 15.2211 209.424 15.2211C209.354 15.2211 209.297 15.1115 209.297 14.9774C209.297 14.8434 209.224 14.7337 209.134 14.7337C209.045 14.7337 208.972 14.6021 208.972 14.4413C208.972 14.2804 208.89 14.0673 208.791 13.9675C208.581 13.7578 208.268 13.2351 207.935 12.5404C207.807 12.2724 207.56 11.8702 207.386 11.6469C207.212 11.4235 207.09 11.1039 207.116 10.9365C207.159 10.6556 207.92 9.69156 208.2 9.56337C208.267 9.53283 208.322 9.4308 208.322 9.33673C208.322 9.24283 208.487 9.0066 208.688 8.81196C208.889 8.61733 209.163 8.29093 209.297 8.08639C209.818 7.29095 210.646 6.28544 210.78 6.28544C210.858 6.28544 210.921 6.20291 210.921 6.10201C210.921 5.9415 211.274 5.4874 212.358 4.2546C212.515 4.07589 212.927 3.56412 213.275 3.11733C213.622 2.67055 214.038 2.17421 214.2 2.01434C214.37 1.84651 214.495 1.48925 214.495 1.1687V0.613551L211.661 0.565785C209.005 0.520781 208.809 0.538003 208.523 0.842791ZM242.107 0.599091L234.23 0.680324L234.187 14.0026C234.148 26.3831 234.165 27.3392 234.422 27.528C234.633 27.6838 236.503 27.7311 242.444 27.7311H250.191L250.289 27.3655C250.343 27.1644 250.388 26.1888 250.389 25.1974C250.391 23.6556 250.348 23.3559 250.094 23.126C249.831 22.8876 249.212 22.8571 244.653 22.8571H239.508V19.773V16.6889L243.61 16.6455L247.711 16.6021L247.738 14.329C247.758 12.7451 247.708 12.0192 247.576 11.9351C247.472 11.8686 245.614 11.8132 243.447 11.8118L239.508 11.8093V8.55998V5.31064H244.674C248.474 5.31064 249.89 5.25913 250.034 5.11568C250.25 4.89927 250.313 0.963992 250.104 0.680324C250.026 0.573908 247.266 0.545964 242.107 0.599091ZM91.4109 5.40146C91.6436 5.57497 91.9683 5.93613 92.1322 6.2042C92.408 6.65554 92.4329 7.23717 92.4671 14.0715C92.49 18.6537 92.4444 21.5234 92.3468 21.6412C92.2602 21.7455 92.2357 21.8774 92.2924 21.9339C92.349 21.9906 92.2756 22.0831 92.1294 22.1391C91.9831 22.1954 91.8968 22.2951 91.9375 22.3611C91.9782 22.4269 91.6956 22.6386 91.3097 22.8314C90.6837 23.1442 90.3463 23.1815 88.1891 23.1781C85.7103 23.1742 84.5252 23.0192 84.4136 22.6847C84.379 22.5806 84.2132 22.3776 84.0454 22.2339C83.8775 22.0901 83.7402 21.8103 83.7402 21.6121C83.7402 21.4137 83.6652 21.2053 83.5736 21.1486C83.4621 21.0797 83.4298 18.6979 83.4761 13.9498C83.5141 10.0472 83.5648 6.7561 83.5887 6.63653C83.6593 6.2817 84.8356 5.17888 85.237 5.09114C85.4412 5.04663 86.8186 5.02729 88.2978 5.04809C90.6702 5.08172 91.0374 5.12348 91.4109 5.40146ZM167.959 5.31925C168.515 5.58309 168.751 5.83492 169.1 6.53791C169.311 6.96293 169.34 8.0573 169.302 14.1739C169.261 20.8267 169.23 21.667 169.015 21.8823C168.97 21.927 168.857 22.1031 168.763 22.2737C168.669 22.4443 168.341 22.7183 168.034 22.8829C167.559 23.1381 167.091 23.182 164.845 23.182C163.398 23.182 162.013 23.1057 161.768 23.0124C161.332 22.8467 160.404 22.0447 160.647 22.0447C160.715 22.0447 160.67 21.9239 160.548 21.7762C160.368 21.5593 160.317 20.1431 160.285 14.4156C160.249 8.03635 160.273 7.25114 160.524 6.60144C160.867 5.71664 160.968 5.6086 161.787 5.26108C162.325 5.03233 162.868 4.99399 164.954 5.03655C166.701 5.0723 167.621 5.15889 167.959 5.31925ZM12.2364 5.55905C13.2987 5.98423 13.4814 6.49323 13.5472 9.20985C13.613 11.9263 13.4288 13.0434 12.821 13.6151C12.4187 13.9935 12.3313 14.0038 9.09199 14.0525L5.77489 14.1024V9.70651V5.31064H8.69534C10.9372 5.31064 11.76 5.36831 12.2364 5.55905ZM50.9339 5.76668C51.1549 5.97285 51.3422 6.19218 51.3498 6.25408C51.3576 6.31598 51.4307 6.51289 51.5123 6.69161C51.594 6.87032 51.6607 8.31693 51.6607 9.90634C51.6607 12.1416 51.6115 12.8265 51.4439 12.9302C51.3245 13.0038 51.2332 13.1108 51.2409 13.1679C51.2836 13.4874 51.2046 13.5831 50.7022 13.8216C50.2538 14.0345 49.5659 14.0839 47.0476 14.0839H43.9454V9.68279V5.28172L47.2386 5.33679C50.4159 5.38992 50.546 5.40503 50.9339 5.76668Z" fill="#F5F5F5"/>
<path fill-rule="evenodd" clip-rule="evenodd" d="M95.415 26.2272C95.2131 26.4849 95.2188 26.4905 95.4764 26.2886C95.747 26.0763 95.8329 25.9429 95.6992 25.9429C95.6656 25.9429 95.5376 26.0709 95.415 26.2272Z" fill="#F5F5F5"/>
</svg>
