<svg width="16" height="16" viewBox="0 0 16 16" fill="none" xmlns="http://www.w3.org/2000/svg">
<path d="M16 8C16 12.4183 12.4183 16 8 16C3.58172 16 0 12.4183 0 8C0 3.58172 3.58172 0 8 0C12.4183 0 16 3.58172 16 8Z" fill="#F5F5F5"/>
<path fill-rule="evenodd" clip-rule="evenodd" d="M10.8241 1.21416C10.8043 1.31713 10.7716 1.5333 10.7513 1.69448C10.6295 2.66523 9.86695 3.37525 8.78498 3.52552L8.4276 3.5752L8.90931 3.65089C9.50847 3.74512 9.86 3.90493 10.2089 4.24185C10.5398 4.56142 10.7538 5.01691 10.8407 5.58651C10.8767 5.82251 10.9141 6.02404 10.9239 6.03425C10.9337 6.0445 10.9574 5.85665 10.9766 5.61684C11.0216 5.05432 11.1764 4.69696 11.5582 4.27405C11.9265 3.86612 12.2444 3.69351 12.8218 3.58824L13.2525 3.50973L12.8951 3.46162C12.3625 3.38992 11.9536 3.20677 11.6158 2.88845C11.188 2.48557 11.0172 2.1484 10.9317 1.5381C10.8752 1.13547 10.8524 1.06671 10.8241 1.21416ZM6.31922 3.71317C5.38098 3.9264 4.82856 4.21477 4.43458 4.69696C3.9777 5.25608 3.75629 6.0848 3.86858 6.81516C4.01237 7.75074 4.55109 8.43318 5.82642 9.29539C8.3604 11.0086 8.73193 11.2805 9.09462 11.6872C9.80174 12.4801 9.76422 13.195 8.99305 13.6191C8.70469 13.7777 8.61636 13.7964 8.24887 13.7768C7.76556 13.751 7.36189 13.5727 7.05213 13.2482C6.75828 12.9403 6.66864 12.7213 6.48165 11.8539C6.21194 10.603 5.90999 10.2986 4.92827 10.2878C4.33183 10.2813 4.15063 10.3588 3.84904 10.7498C3.69256 10.9526 3.66236 11.0501 3.64264 11.4158C3.62328 11.7748 3.64407 11.9005 3.77083 12.1905C4.14818 13.054 5.3811 13.8223 6.7475 14.0455C7.38534 14.1496 8.85116 14.0818 9.42807 13.9212C10.3959 13.6521 11.1115 13.1422 11.468 12.4679C11.6343 12.1535 11.6439 12.097 11.6375 11.4639C11.6313 10.8442 11.6164 10.7624 11.4423 10.392C11.2048 9.88659 10.5661 9.16396 9.99418 8.75375C9.75502 8.58213 8.99644 8.09383 8.30844 7.6685C7.27596 7.03021 6.97785 6.81288 6.60121 6.42354C6.20985 6.01897 6.13051 5.90004 6.04378 5.58766C5.83309 4.82819 6.17882 4.09208 6.90863 3.74643L7.17669 3.61944L6.93841 3.62299C6.80737 3.62499 6.52871 3.66555 6.31922 3.71317Z" fill="black"/>
</svg>
